#N canvas 212 57 608 552 10;
#X obj 114 -34 inlet;
#X obj 77 130 bng 15 250 50 0 empty empty empty 17 7 0 10 -262144 -1
-1;
#X obj 162 100 bng 15 250 50 0 empty empty empty 17 7 0 10 -262144
-1 -1;
#X obj 187 82 bng 15 250 50 0 empty empty empty 17 7 0 10 -262144 -1
-1;
#X obj 203 64 bng 15 250 50 0 empty empty empty 17 7 0 10 -262144 -1
-1;
#X obj 224 64 bng 15 250 50 0 empty empty empty 17 7 0 10 -262144 -1
-1;
#X floatatom 61 51 5 0 0 0 - - -;
#X obj 111 470 outlet;
#X obj 147 -15 inlet;
#X obj 114 -5 + 1;
#X obj 114 35 gate 6;
#X msg 107 232 open /Users/juanmanuelbonilla/Documents/Tesis_Pat/bancoSonidos/cna_v1_1.wav
;
#X msg 153 179 open /Users/juanmanuelbonilla/Documents/Tesis_Pat/bancoSonidos/cna_v1_2.wav
;
#X msg 192 127 open /Users/juanmanuelbonilla/Documents/Tesis_Pat/bancoSonidos/cna_v1_3.wav
;
#X msg 200 311 open /Users/juanmanuelbonilla/Documents/Tesis_Pat/bancoSonidos/cna_v1_4.wav
;
#X msg 231 367 open /Users/juanmanuelbonilla/Documents/Tesis_Pat/bancoSonidos/cna_v1_5.wav
;
#X connect 0 0 9 0;
#X connect 1 0 11 0;
#X connect 2 0 12 0;
#X connect 3 0 13 0;
#X connect 4 0 14 0;
#X connect 5 0 15 0;
#X connect 8 0 10 1;
#X connect 9 0 10 0;
#X connect 10 0 1 0;
#X connect 10 0 6 0;
#X connect 10 1 2 0;
#X connect 10 2 3 0;
#X connect 10 3 4 0;
#X connect 10 4 5 0;
#X connect 11 0 7 0;
#X connect 12 0 7 0;
#X connect 13 0 7 0;
#X connect 14 0 7 0;
#X connect 15 0 7 0;
