#N canvas 136 59 787 614 10;
#X msg 138 -202 start;
#X obj 168 175 dac~ 1 2;
#X obj 138 -244 bng 15 250 50 0 empty empty empty 17 7 0 10 -262144
-1 -1;
#X obj 138 -63 +~;
#X obj 293 -13 +~;
#X obj 293 13 +~;
#X obj 138 -182 readsf~ 1;
#X msg 293 -218 start;
#X obj 293 -250 bng 15 250 50 0 empty empty empty 17 7 0 10 -262144
-1 -1;
#X obj 293 -201 readsf~ 1;
#X msg 437 -205 start;
#X obj 437 -245 bng 15 250 50 0 empty empty empty 17 7 0 10 -262144
-1 -1;
#X obj 437 -188 readsf~ 1;
#X msg 589 -219 start;
#X obj 589 -251 bng 15 250 50 0 empty empty empty 17 7 0 10 -262144
-1 -1;
#X obj 589 -202 readsf~ 1;
#X obj 293 -235 delay 5;
#X obj 437 -228 delay 5;
#X obj 589 -236 delay 5;
#X obj 164 -284 r voz_uno;
#X obj 137 -301 r r_voz_uno;
#X obj 293 -301 r r_voz_dos;
#X obj 320 -284 r voz_dos;
#X obj 437 -301 r r_voz_tres;
#X obj 464 -280 r voz_tres;
#X obj 589 -302 r r_voz_cuatro;
#X obj 616 -285 r voz_cuatro;
#X obj 255 -248 vsl 15 30 0 1 0 0 empty empty empty 0 -9 0 10 -262144
-1 -1 2900 1;
#X obj 138 -165 *~;
#X obj 293 -184 *~;
#X obj 405 -231 vsl 15 30 0 1 0 0 empty empty empty 0 -9 0 10 -262144
-1 -1 2900 1;
#X obj 137 -267 ritmo;
#X obj 437 -171 *~;
#X obj 560 -244 vsl 15 30 0 1 0 0 empty empty empty 0 -9 0 10 -262144
-1 -1 2900 1;
#X obj 589 -186 *~;
#X obj 647 -232 vsl 15 30 0 1 0 0 empty empty empty 0 -9 0 10 -262144
-1 -1 2900 1;
#X obj 55 -301 r b_voz_uno;
#X obj 339 -267 r b_voz_dos;
#X obj 339 -250 banco_voz_dos;
#X obj 471 -263 r b_voz_tres;
#X obj 471 -246 banco_voz_tres;
#X obj 636 -267 r b_voz_cuatro;
#X obj 393 169 writesf~ 2;
#X msg 427 80 start;
#X msg 435 105 stop;
#X obj 293 121 env~;
#X obj 293 141 - 100;
#X obj 294 166 vu 15 120 empty empty -1 -8 0 10 -66577 -1 1 0;
#X obj 160 -124 r vv1;
#X obj 201 -166 r rv1;
#X obj 150 -143 reverb_ed;
#X obj 138 -108 *~;
#X obj 306 -162 reverb_ed;
#X obj 357 -184 r rv2;
#X obj 316 -142 r vv2;
#X obj 292 -123 *~;
#X obj 440 -126 reverb_ed;
#X obj 491 -149 r rv3;
#X obj 450 -106 r vv3;
#X obj 428 -76 *~;
#X obj 612 -135 reverb_ed;
#X obj 663 -159 r rv4;
#X obj 622 -115 r vv4;
#X obj 586 -106 *~;
#X obj 293 74 *~;
#X obj 308 42 r master_vol;
#X obj 636 -250 banco_voz_cuatro;
#X obj 55 -284 banco_voz_uno;
#X obj 171 89 +~;
#X obj 172 -17 r tec_nota;
#X obj 195 5 r tec_P;
#X obj 171 49 wode_classicsynth;
#X obj 220 26 * 10;
#X obj 293 -267 ritmo;
#X obj 437 -263 ritmo;
#X obj 589 -268 ritmo;
#X msg 417 54 open echoplex_2.wav;
#X obj 138 -225 delay 2;
#X connect 0 0 6 0;
#X connect 2 0 77 0;
#X connect 3 0 4 0;
#X connect 4 0 5 0;
#X connect 5 0 64 0;
#X connect 6 0 28 0;
#X connect 7 0 9 0;
#X connect 8 0 16 0;
#X connect 9 0 29 0;
#X connect 10 0 12 0;
#X connect 11 0 17 0;
#X connect 12 0 32 0;
#X connect 13 0 15 0;
#X connect 14 0 18 0;
#X connect 15 0 34 0;
#X connect 16 0 7 0;
#X connect 17 0 10 0;
#X connect 18 0 13 0;
#X connect 19 0 31 1;
#X connect 20 0 31 0;
#X connect 21 0 73 0;
#X connect 22 0 73 1;
#X connect 23 0 74 0;
#X connect 24 0 74 1;
#X connect 25 0 75 0;
#X connect 26 0 75 1;
#X connect 27 0 28 1;
#X connect 28 0 50 0;
#X connect 28 0 51 0;
#X connect 29 0 52 0;
#X connect 29 0 55 0;
#X connect 30 0 29 1;
#X connect 31 0 2 0;
#X connect 31 0 67 1;
#X connect 31 1 27 0;
#X connect 32 0 56 0;
#X connect 32 0 59 0;
#X connect 33 0 32 1;
#X connect 34 0 60 0;
#X connect 34 0 63 0;
#X connect 35 0 34 1;
#X connect 36 0 67 0;
#X connect 37 0 38 0;
#X connect 38 0 9 0;
#X connect 39 0 40 0;
#X connect 40 0 12 0;
#X connect 41 0 66 0;
#X connect 43 0 42 0;
#X connect 44 0 42 0;
#X connect 45 0 46 0;
#X connect 46 0 47 0;
#X connect 48 0 51 1;
#X connect 49 0 50 1;
#X connect 50 0 51 0;
#X connect 51 0 3 0;
#X connect 52 0 55 0;
#X connect 53 0 52 1;
#X connect 54 0 55 1;
#X connect 55 0 3 1;
#X connect 56 0 59 0;
#X connect 57 0 56 1;
#X connect 58 0 59 1;
#X connect 59 0 4 1;
#X connect 60 0 63 0;
#X connect 61 0 60 1;
#X connect 62 0 63 1;
#X connect 63 0 5 1;
#X connect 64 0 68 1;
#X connect 65 0 64 1;
#X connect 66 0 15 0;
#X connect 67 0 6 0;
#X connect 68 0 1 0;
#X connect 68 0 1 1;
#X connect 68 0 45 0;
#X connect 68 0 42 0;
#X connect 68 0 42 1;
#X connect 69 0 71 0;
#X connect 70 0 71 1;
#X connect 70 0 72 0;
#X connect 71 0 68 0;
#X connect 72 0 71 2;
#X connect 73 0 8 0;
#X connect 73 0 38 1;
#X connect 73 1 30 0;
#X connect 74 0 11 0;
#X connect 74 0 40 1;
#X connect 74 1 33 0;
#X connect 75 0 14 0;
#X connect 75 0 66 1;
#X connect 75 1 35 0;
#X connect 76 0 42 0;
#X connect 77 0 0 0;
