#N canvas 98 22 823 661 10;
#X msg 36 74 start;
#X obj 219 582 dac~ 1 2;
#X obj 68 22 bng 15 250 50 0 empty empty empty 17 7 0 10 -262144 -1
-1;
#X obj 133 361 +~;
#X obj 185 422 +~;
#X obj 227 521 +~;
#X obj 36 132 readsf~ 1;
#X msg 169 174 start;
#X obj 201 122 bng 15 250 50 0 empty empty empty 17 7 0 10 -262144
-1 -1;
#X obj 169 232 readsf~ 1;
#X msg 268 298 start;
#X obj 301 246 bng 15 250 50 0 empty empty empty 17 7 0 10 -262144
-1 -1;
#X obj 268 356 readsf~ 1;
#X msg 364 457 start;
#X obj 396 405 bng 15 250 50 0 empty empty empty 17 7 0 10 -262144
-1 -1;
#X obj 364 515 readsf~ 1;
#X obj 201 98 r voz_dos;
#X obj 301 220 r voz_tres;
#X obj 396 371 r voz_cuatro;
#X msg 329 274 open /Users/juanmanuelbonilla/Documents/Tesis_Pat/PureData/CLAPS.wav
;
#X msg 230 149 open /Users/juanmanuelbonilla/Documents/Tesis_Pat/PureData/CLHAT1.wav
;
#X obj 532 376 openpanel;
#X msg 425 433 open /Users/juanmanuelbonilla/Documents/Tesis_Pat/PureData/AttackKick003.wav
;
#X obj 36 51 delay 5;
#X obj 169 151 delay 5;
#X obj 268 275 delay 5;
#X obj 364 434 delay 5;
#X msg 97 50 open /Users/juanmanuelbonilla/Documents/Tesis_Pat/PureData/COWBELL.wav
;
#X obj 68 -4 r voz_uno;
#X connect 0 0 6 0;
#X connect 2 0 27 0;
#X connect 2 0 23 0;
#X connect 3 0 4 0;
#X connect 4 0 5 0;
#X connect 5 0 1 0;
#X connect 5 0 1 1;
#X connect 6 0 3 0;
#X connect 7 0 9 0;
#X connect 8 0 20 0;
#X connect 8 0 24 0;
#X connect 9 0 3 1;
#X connect 10 0 12 0;
#X connect 11 0 19 0;
#X connect 11 0 25 0;
#X connect 12 0 4 1;
#X connect 13 0 15 0;
#X connect 14 0 22 0;
#X connect 14 0 26 0;
#X connect 15 0 5 1;
#X connect 16 0 8 0;
#X connect 17 0 11 0;
#X connect 18 0 14 0;
#X connect 19 0 12 0;
#X connect 20 0 9 0;
#X connect 22 0 15 0;
#X connect 23 0 0 0;
#X connect 24 0 7 0;
#X connect 25 0 10 0;
#X connect 26 0 13 0;
#X connect 27 0 6 0;
#X connect 28 0 2 0;
