#N canvas 196 59 832 678 10;
#X obj 134 -14 inlet;
#X obj 97 150 bng 15 250 50 0 empty empty empty 17 7 0 10 -262144 -1
-1;
#X obj 182 120 bng 15 250 50 0 empty empty empty 17 7 0 10 -262144
-1 -1;
#X obj 207 102 bng 15 250 50 0 empty empty empty 17 7 0 10 -262144
-1 -1;
#X obj 223 84 bng 15 250 50 0 empty empty empty 17 7 0 10 -262144 -1
-1;
#X obj 244 84 bng 15 250 50 0 empty empty empty 17 7 0 10 -262144 -1
-1;
#X floatatom 81 71 5 0 0 0 - - -;
#X obj 131 490 outlet;
#X obj 167 5 inlet;
#X obj 134 15 + 1;
#X obj 134 55 gate 6;
#X msg 79 246 open /Users/juanmanuelbonilla/Documents/Tesis_Pat/bancoSonidos/cna_v4_1.wav
;
#X msg 173 198 open /Users/juanmanuelbonilla/Documents/Tesis_Pat/bancoSonidos/cna_v4_2.wav
;
#X msg 212 146 open /Users/juanmanuelbonilla/Documents/Tesis_Pat/bancoSonidos/cna_v4_3.wav
;
#X msg 251 387 open /Users/juanmanuelbonilla/Documents/Tesis_Pat/bancoSonidos/cna_v4_5.wav
;
#X msg 221 332 open /Users/juanmanuelbonilla/Documents/Tesis_Pat/bancoSonidos/cna_v4_4.wav
;
#X connect 0 0 9 0;
#X connect 1 0 11 0;
#X connect 2 0 12 0;
#X connect 3 0 13 0;
#X connect 4 0 15 0;
#X connect 5 0 14 0;
#X connect 8 0 10 1;
#X connect 9 0 10 0;
#X connect 10 0 1 0;
#X connect 10 0 6 0;
#X connect 10 1 2 0;
#X connect 10 2 3 0;
#X connect 10 3 4 0;
#X connect 10 4 5 0;
#X connect 11 0 7 0;
#X connect 12 0 7 0;
#X connect 13 0 7 0;
#X connect 14 0 7 0;
#X connect 15 0 7 0;
