#N canvas 0 22 1166 701 10;
#X declare -lib mrpeach;
#X msg 46 84 start;
#X obj 229 592 dac~ 1 2;
#X obj 78 32 bng 15 250 50 0 empty empty empty 17 7 0 10 -262144 -1
-1;
#X obj 143 371 +~;
#X obj 195 432 +~;
#X obj 237 531 +~;
#X obj 46 142 readsf~ 1;
#X msg 179 184 start;
#X obj 211 132 bng 15 250 50 0 empty empty empty 17 7 0 10 -262144
-1 -1;
#X obj 179 242 readsf~ 1;
#X msg 278 308 start;
#X obj 311 256 bng 15 250 50 0 empty empty empty 17 7 0 10 -262144
-1 -1;
#X obj 278 366 readsf~ 1;
#X msg 374 467 start;
#X obj 406 415 bng 15 250 50 0 empty empty empty 17 7 0 10 -262144
-1 -1;
#X obj 374 525 readsf~ 1;
#X obj 211 108 r voz_dos;
#X obj 311 230 r voz_tres;
#X obj 406 381 r voz_cuatro;
#X msg 339 284 open /Users/juanmanuelbonilla/Documents/Tesis_Pat/PureData/CLAPS.wav
;
#X msg 240 159 open /Users/juanmanuelbonilla/Documents/Tesis_Pat/PureData/CLHAT1.wav
;
#X obj 542 386 openpanel;
#X obj 670 130 delay~;
#X floatatom 699 69 5 0 0 0 - - -;
#X msg 749 60 512;
#X msg 703 32 125;
#X obj 696 170 delay~;
#X msg 770 112 8;
#X floatatom 806 52 5 0 0 0 - - -;
#X msg 435 443 open /Users/juanmanuelbonilla/Documents/Tesis_Pat/PureData/AttackKick003.wav
;
#X obj 547 519 r tempo;
#X obj 556 552 / 2;
#X obj 46 61 delay 5;
#X obj 179 161 delay 5;
#X obj 278 285 delay 5;
#X obj 374 444 delay 5;
#X floatatom 576 590 5 0 0 0 - - -;
#X msg 462 637 start;
#X obj 494 585 bng 15 250 50 0 empty empty empty 17 7 0 10 -262144
-1 -1;
#X obj 461 672 readsf~ 1;
#X msg 523 613 open /Users/juanmanuelbonilla/Documents/Tesis_Pat/PureData/AttackKick003.wav
;
#X obj 462 614 delay 5;
#X obj 495 549 delay;
#X obj 784 395 fdn~ 64 40000;
#X msg 893 263 exponential 32 10 5000;
#X msg 896 150 linear 8 75 100;
#X msg 896 127 linear 32 50 2175;
#X msg 895 310 exponential 8 50 175;
#X msg 893 287 exponential 64 1000 10;
#X msg 742 317 reset;
#X text 840 102 try clicking different parameters sets:;
#X msg 896 174 linear 32 100 105;
#X msg 895 197 linear 64 10 15;
#X msg 895 218 linear 8 1 5;
#X msg 895 238 linear 64 4 5;
#X floatatom 948 358 5 0 0 0 - - -;
#X floatatom 1017 353 5 0 0 0 - - -;
#X msg 107 60 open /Users/juanmanuelbonilla/Documents/Tesis_Pat/PureData/COWBELL.wav
;
#X obj 78 6 r m_general;
#X obj 961 499 inputprocessing;
#X connect 0 0 6 0;
#X connect 2 0 57 0;
#X connect 2 0 32 0;
#X connect 3 0 4 0;
#X connect 4 0 5 0;
#X connect 5 0 1 0;
#X connect 5 0 1 1;
#X connect 6 0 3 0;
#X connect 7 0 9 0;
#X connect 8 0 20 0;
#X connect 8 0 33 0;
#X connect 9 0 3 1;
#X connect 10 0 12 0;
#X connect 11 0 19 0;
#X connect 11 0 34 0;
#X connect 12 0 4 1;
#X connect 12 0 22 0;
#X connect 13 0 15 0;
#X connect 14 0 29 0;
#X connect 14 0 35 0;
#X connect 14 0 31 0;
#X connect 14 0 42 0;
#X connect 15 0 5 1;
#X connect 15 0 22 0;
#X connect 16 0 8 0;
#X connect 16 0 24 0;
#X connect 17 0 11 0;
#X connect 17 0 27 0;
#X connect 18 0 14 0;
#X connect 19 0 12 0;
#X connect 20 0 9 0;
#X connect 22 0 5 1;
#X connect 22 0 26 0;
#X connect 23 0 22 1;
#X connect 24 0 22 1;
#X connect 25 0 22 1;
#X connect 26 0 5 1;
#X connect 27 0 26 1;
#X connect 28 0 26 1;
#X connect 29 0 15 0;
#X connect 30 0 31 0;
#X connect 31 0 36 0;
#X connect 31 0 42 1;
#X connect 32 0 0 0;
#X connect 33 0 7 0;
#X connect 34 0 10 0;
#X connect 35 0 13 0;
#X connect 37 0 39 0;
#X connect 38 0 40 0;
#X connect 38 0 41 0;
#X connect 39 0 5 1;
#X connect 40 0 39 0;
#X connect 41 0 37 0;
#X connect 42 0 38 0;
#X connect 43 0 5 1;
#X connect 44 0 43 0;
#X connect 45 0 43 0;
#X connect 46 0 43 0;
#X connect 47 0 43 0;
#X connect 48 0 43 0;
#X connect 49 0 43 0;
#X connect 51 0 43 0;
#X connect 52 0 43 0;
#X connect 53 0 43 0;
#X connect 54 0 43 0;
#X connect 55 0 43 1;
#X connect 56 0 43 2;
#X connect 57 0 6 0;
#X connect 58 0 2 0;
#X connect 58 0 25 0;
