#N canvas 63 22 354 649 10;
#X declare -lib mrpeach;
#X obj 54 -22 inlet;
#X obj 105 -22 inlet;
#X obj 54 88 metro 300;
#X obj 54 136 float;
#X obj 98 135 + 1;
#X obj 54 184 mod 16;
#X floatatom 108 166 5 0 0 0 - - -;
#X obj 54 241 route 0 1 2 3 4 5 6 7 8 9 10 11 12 13 14 15;
#X obj 54 531 s m1;
#X obj 69 513 s m2;
#X obj 85 496 s m3;
#X obj 101 478 s m4;
#X obj 117 460 s m5;
#X obj 133 442 s m6;
#X obj 149 424 s m7;
#X obj 165 406 s m8;
#X obj 181 388 s m9;
#X obj 197 370 s m10;
#X obj 213 352 s m11;
#X obj 229 334 s m12;
#X obj 245 316 s m13;
#X obj 261 298 s m14;
#X obj 277 280 s m15;
#X obj 293 262 s m16;
#X obj 54 113 bng 15 250 50 0 empty empty empty 17 7 0 10 -262144 -1
-1;
#X floatatom 54 209 5 0 0 0 - - -;
#X obj 19 311 bng 30 250 50 0 empty empty empty 17 7 0 10 -258113 -1
-1;
#X obj 105 18 expr 1000/($f1 /60);
#X floatatom 147 49 5 0 0 0 - - -;
#X obj 150 78 s tempo;
#X obj 151 132 s m_general;
#X msg 6 84 0;
#X obj 98 201 OSC_Processing;
#X obj -12 211 s pasovoy;
#X connect 0 0 2 0;
#X connect 1 0 27 0;
#X connect 2 0 24 0;
#X connect 2 0 30 0;
#X connect 2 0 31 0;
#X connect 3 0 6 0;
#X connect 3 0 4 0;
#X connect 3 0 5 0;
#X connect 4 0 3 1;
#X connect 5 0 25 0;
#X connect 5 0 32 0;
#X connect 5 0 33 0;
#X connect 7 0 8 0;
#X connect 7 0 26 0;
#X connect 7 1 9 0;
#X connect 7 2 10 0;
#X connect 7 3 11 0;
#X connect 7 4 12 0;
#X connect 7 5 13 0;
#X connect 7 6 14 0;
#X connect 7 7 15 0;
#X connect 7 8 16 0;
#X connect 7 9 17 0;
#X connect 7 10 18 0;
#X connect 7 11 19 0;
#X connect 7 12 20 0;
#X connect 7 13 21 0;
#X connect 7 14 22 0;
#X connect 7 15 23 0;
#X connect 24 0 3 0;
#X connect 25 0 7 0;
#X connect 27 0 28 0;
#X connect 27 0 2 1;
#X connect 27 0 29 0;
