#N canvas 217 204 337 206 10;
#X obj 11 4 inlet;
#X obj 12 87 outlet;
#X obj 33 46 delay;
#X obj 60 6 r tempo;
#X obj 60 26 / 2;
#X connect 0 0 2 0;
#X connect 0 0 1 0;
#X connect 2 0 1 0;
#X connect 3 0 4 0;
#X connect 4 0 2 1;
