#N canvas 619 90 275 290 10;
#X obj 76 137 paso_4_voces;
#X obj 202 151 bng 15 250 50 0 empty empty empty 17 7 0 10 -262144
-1 -1;
#X obj 75 117 tgl 15 0 empty i71 empty 17 7 0 10 -262144 -1 -1 0 1
;
#X obj 92 117 tgl 15 0 empty i72 empty 17 7 0 10 -262144 -1 -1 0 1
;
#X obj 109 117 tgl 15 0 empty i73 empty 17 7 0 10 -262144 -1 -1 0 1
;
#X obj 128 118 tgl 15 0 empty i74 empty 17 7 0 10 -262144 -1 -1 0 1
;
#X obj 76 226 s o71;
#X obj 100 204 s o72;
#X obj 122 182 s o73;
#X obj 144 160 s o74;
#X obj 74 32 r i71;
#X obj 92 52 r i72;
#X obj 109 72 r i73;
#X obj 127 93 r i74;
#X obj 145 112 r m7;
#X connect 0 0 6 0;
#X connect 0 1 7 0;
#X connect 0 2 8 0;
#X connect 0 3 9 0;
#X connect 2 0 0 0;
#X connect 3 0 0 1;
#X connect 4 0 0 2;
#X connect 5 0 0 3;
#X connect 10 0 2 0;
#X connect 11 0 3 0;
#X connect 12 0 4 0;
#X connect 13 0 5 0;
#X connect 14 0 0 4;
#X connect 14 0 1 0;
