#N canvas -1178 -19 271 313 10;
#X obj 76 137 paso_4_voces;
#X obj 202 151 bng 15 250 50 0 empty empty empty 17 7 0 10 -262144
-1 -1;
#X obj 75 117 tgl 15 0 empty i91 empty 17 7 0 10 -262144 -1 -1 0 1
;
#X obj 92 117 tgl 15 0 empty i92 empty 17 7 0 10 -262144 -1 -1 0 1
;
#X obj 109 117 tgl 15 0 empty i93 empty 17 7 0 10 -262144 -1 -1 0 1
;
#X obj 128 118 tgl 15 0 empty i94 empty 17 7 0 10 -262144 -1 -1 0 1
;
#X obj 74 32 r i91;
#X obj 92 52 r i92;
#X obj 109 72 r i93;
#X obj 127 93 r i94;
#X obj 145 112 r m9;
#X obj 144 160 s o94;
#X obj 122 182 s o93;
#X obj 99 204 s o92;
#X obj 76 226 s o91;
#X connect 0 0 14 0;
#X connect 0 1 13 0;
#X connect 0 2 12 0;
#X connect 0 3 11 0;
#X connect 2 0 0 0;
#X connect 3 0 0 1;
#X connect 4 0 0 2;
#X connect 5 0 0 3;
#X connect 6 0 2 0;
#X connect 7 0 3 0;
#X connect 8 0 4 0;
#X connect 9 0 5 0;
#X connect 10 0 0 4;
#X connect 10 0 1 0;
