#N canvas 640 105 508 399 10;
#X obj 106 159 gate;
#X obj 101 100 inlet;
#X obj 147 98 inlet;
#X obj 191 97 inlet;
#X obj 234 97 inlet;
#X obj 110 239 outlet;
#X obj 157 241 outlet;
#X obj 206 242 outlet;
#X obj 251 240 outlet;
#X obj 283 114 inlet;
#X obj 145 158 gate;
#X obj 186 158 gate;
#X obj 225 156 gate;
#X obj 101 131 tgl 15 0 empty empty empty 17 7 0 10 -262144 -1 -1 0
1;
#X obj 143 131 tgl 15 0 empty empty empty 17 7 0 10 -262144 -1 -1 0
1;
#X obj 186 131 tgl 15 0 empty empty empty 17 7 0 10 -262144 -1 -1 0
1;
#X obj 228 130 tgl 15 0 empty empty empty 17 7 0 10 -262144 -1 -1 0
1;
#X obj 102 204 bng 15 250 50 0 empty empty empty 17 7 0 10 -262144
-1 -1;
#X obj 146 206 bng 15 250 50 0 empty empty empty 17 7 0 10 -262144
-1 -1;
#X obj 195 204 bng 15 250 50 0 empty empty empty 17 7 0 10 -262144
-1 -1;
#X obj 244 201 bng 15 250 50 0 empty empty empty 17 7 0 10 -262144
-1 -1;
#X text 325 116 Entrada general metrónomo;
#X text 16 70 switch ->>> voz 1 voz2 voz3 voz4;
#X connect 0 0 17 0;
#X connect 1 0 13 0;
#X connect 2 0 14 0;
#X connect 3 0 15 0;
#X connect 4 0 16 0;
#X connect 9 0 12 1;
#X connect 9 0 11 1;
#X connect 9 0 10 1;
#X connect 9 0 0 1;
#X connect 10 0 18 0;
#X connect 11 0 19 0;
#X connect 12 0 20 0;
#X connect 13 0 0 0;
#X connect 14 0 10 0;
#X connect 15 0 11 0;
#X connect 16 0 12 0;
#X connect 17 0 5 0;
#X connect 18 0 6 0;
#X connect 19 0 7 0;
#X connect 20 0 8 0;
