#N canvas 528 105 450 300 10;
#X obj 76 77 gate;
#X obj 71 18 inlet;
#X obj 117 16 inlet;
#X obj 161 15 inlet;
#X obj 204 15 inlet;
#X obj 80 157 outlet;
#X obj 127 151 outlet;
#X obj 178 156 outlet;
#X obj 221 157 outlet;
#X obj 247 16 inlet;
#X obj 115 76 gate;
#X obj 156 76 gate;
#X obj 195 74 gate;
#X obj 71 49 tgl 15 0 empty empty empty 17 7 0 10 -262144 -1 -1 0 1
;
#X obj 113 49 tgl 15 0 empty empty empty 17 7 0 10 -262144 -1 -1 0
1;
#X obj 156 49 tgl 15 0 empty empty empty 17 7 0 10 -262144 -1 -1 0
1;
#X obj 198 48 tgl 15 0 empty empty empty 17 7 0 10 -262144 -1 -1 0
1;
#X obj 72 122 bng 15 250 50 0 empty empty empty 17 7 0 10 -262144 -1
-1;
#X obj 116 124 bng 15 250 50 0 empty empty empty 17 7 0 10 -262144
-1 -1;
#X obj 165 122 bng 15 250 50 0 empty empty empty 17 7 0 10 -262144
-1 -1;
#X obj 214 119 bng 15 250 50 0 empty empty empty 17 7 0 10 -262144
-1 -1;
#X connect 0 0 17 0;
#X connect 1 0 13 0;
#X connect 2 0 14 0;
#X connect 3 0 15 0;
#X connect 4 0 16 0;
#X connect 9 0 12 1;
#X connect 9 0 11 1;
#X connect 9 0 10 1;
#X connect 9 0 0 1;
#X connect 10 0 18 0;
#X connect 11 0 19 0;
#X connect 12 0 20 0;
#X connect 13 0 0 0;
#X connect 14 0 10 0;
#X connect 15 0 11 0;
#X connect 16 0 12 0;
#X connect 17 0 5 0;
#X connect 18 0 6 0;
#X connect 19 0 7 0;
#X connect 20 0 8 0;
