#N canvas 217 204 131 160 10;
#X obj 11 4 inlet;
#X obj 12 87 outlet;
#X obj 33 46 delay;
#X obj 60 6 r tempo;
#X obj 60 26 / 2;
#X obj 63 89 outlet;
#X obj -15 44 1;
#X obj 82 58 1;
#X connect 0 0 2 0;
#X connect 0 0 1 0;
#X connect 0 0 6 0;
#X connect 2 0 1 0;
#X connect 2 0 7 0;
#X connect 3 0 4 0;
#X connect 4 0 2 1;
#X connect 6 0 5 0;
#X connect 7 0 5 0;
