#N canvas 217 204 373 313 10;
#X obj 11 4 inlet;
#X obj 10 115 outlet;
#X obj 33 46 delay;
#X obj 60 6 r tempo;
#X obj 60 26 / 3;
#X obj 61 73 delay;
#X text 77 148 tresillo;
#X obj 66 114 outlet;
#X obj -28 58 1;
#X obj 117 88 0.7;
#X obj 163 112 0.5;
#X connect 0 0 2 0;
#X connect 0 0 1 0;
#X connect 0 0 8 0;
#X connect 2 0 1 0;
#X connect 2 0 5 0;
#X connect 2 0 9 0;
#X connect 3 0 4 0;
#X connect 4 0 2 1;
#X connect 4 0 5 1;
#X connect 5 0 1 0;
#X connect 5 0 10 0;
#X connect 8 0 7 0;
#X connect 9 0 7 0;
#X connect 10 0 7 0;
