#N canvas 477 291 450 300 10;
#X obj 21 14 inlet;
#X obj 20 125 outlet;
#X obj 43 56 delay;
#X obj 70 16 r tempo;
#X obj 70 36 / 3;
#X obj 71 83 delay;
#X text 87 158 tresillo silencio tiempo 1;
#X obj 72 123 outlet;
#X obj 43 85 1;
#X obj 122 86 0.7;
#X connect 0 0 2 0;
#X connect 2 0 1 0;
#X connect 2 0 5 0;
#X connect 2 0 8 0;
#X connect 3 0 4 0;
#X connect 4 0 2 1;
#X connect 4 0 5 1;
#X connect 5 0 1 0;
#X connect 5 0 9 0;
#X connect 8 0 7 0;
#X connect 9 0 7 0;
