#N canvas 708 92 450 300 10;
#X obj 31 24 inlet;
#X obj 30 222 outlet;
#X obj 53 66 delay;
#X obj 113 22 r tempo;
#X obj 81 93 delay;
#X obj 113 42 / 5;
#X obj 128 116 delay;
#X obj 167 146 delay;
#X obj 84 221 outlet;
#X obj 3 119 1;
#X obj 91 133 1;
#X obj 58 124 0.7;
#X obj 120 156 0.5;
#X obj 164 186 0.7;
#X connect 0 0 2 0;
#X connect 0 0 1 0;
#X connect 0 0 9 0;
#X connect 2 0 1 0;
#X connect 2 0 4 0;
#X connect 2 0 11 0;
#X connect 3 0 5 0;
#X connect 4 0 1 0;
#X connect 4 0 6 0;
#X connect 4 0 10 0;
#X connect 5 0 2 1;
#X connect 5 0 4 1;
#X connect 5 0 6 1;
#X connect 5 0 7 1;
#X connect 6 0 1 0;
#X connect 6 0 7 0;
#X connect 6 0 12 0;
#X connect 7 0 1 0;
#X connect 7 0 13 0;
#X connect 9 0 8 0;
#X connect 10 0 8 0;
#X connect 11 0 8 0;
#X connect 12 0 8 0;
#X connect 13 0 8 0;
