#N canvas 762 397 450 300 10;
#X obj 687 242 bng 15 250 50 0 empty empty empty 17 7 0 10 -262144
-1 -1;
#X obj 51 44 inlet;
#X obj 50 242 outlet;
#X obj 73 86 delay;
#X obj 133 42 r tempo;
#X obj 101 113 delay;
#X obj 133 62 / 5;
#X obj 148 136 delay;
#X obj 187 166 delay;
#X obj 98 240 outlet;
#X obj 16 117 1;
#X obj 173 197 1;
#X obj 92 165 0.5;
#X connect 1 0 3 0;
#X connect 1 0 2 0;
#X connect 1 0 10 0;
#X connect 3 0 2 0;
#X connect 3 0 5 0;
#X connect 3 0 12 0;
#X connect 4 0 6 0;
#X connect 5 0 7 0;
#X connect 6 0 3 1;
#X connect 6 0 5 1;
#X connect 6 0 7 1;
#X connect 6 0 8 1;
#X connect 7 0 8 0;
#X connect 8 0 2 0;
#X connect 8 0 11 0;
#X connect 10 0 9 0;
#X connect 11 0 9 0;
#X connect 12 0 9 0;
