#N canvas 509 162 613 501 10;
#X floatatom 251 -59 5 0 0 0 - - -;
#X obj 216 -188 r pasovoy;
#X obj 191 -52 bng 15 250 50 0 empty empty empty 17 7 0 10 -262144
-1 -1;
#X obj 238 -38 bng 15 250 50 0 empty empty empty 17 7 0 10 -262144
-1 -1;
#X obj 325 -49 bng 15 250 50 0 empty empty empty 17 7 0 10 -262144
-1 -1;
#X obj 168 64 gate 3;
#X obj 76 -165 inlet;
#X obj 157 129 outlet;
#X obj 223 140 outlet;
#X obj 376 136 outlet;
#X floatatom 94 95 5 0 0 0 - - -;
#X msg 184 -2 1;
#X msg 220 -5 2;
#X msg 251 10 3;
#X obj 220 105 bng 15 250 50 0 empty empty empty 17 7 0 10 -262144
-1 -1;
#X obj 277 99 bng 15 250 50 0 empty empty empty 17 7 0 10 -262144 -1
-1;
#X obj 166 100 bng 15 250 50 0 empty empty empty 17 7 0 10 -262144
-1 -1;
#X obj 191 -125 route 5 6 13 14;
#X connect 1 0 0 0;
#X connect 1 0 17 0;
#X connect 2 0 11 0;
#X connect 3 0 12 0;
#X connect 4 0 13 0;
#X connect 5 0 10 0;
#X connect 5 0 16 0;
#X connect 5 1 14 0;
#X connect 5 2 15 0;
#X connect 6 0 5 1;
#X connect 11 0 5 0;
#X connect 12 0 5 0;
#X connect 13 0 5 0;
#X connect 14 0 8 0;
#X connect 15 0 9 0;
#X connect 16 0 7 0;
#X connect 17 0 2 0;
#X connect 17 1 3 0;
#X connect 17 2 2 0;
#X connect 17 3 2 0;
#X connect 17 4 4 0;
