#N canvas 89 36 913 444 10;
#X obj -552 163 s i14;
#X obj -518 163 s i24;
#X obj -482 163 s i34;
#X obj -450 163 s i44;
#X obj -416 163 s i54;
#X obj -382 163 s i64;
#X obj -348 163 s i74;
#X obj -314 163 s i84;
#X obj -280 163 s i94;
#X obj -246 163 s i104;
#X obj -206 163 s i114;
#X obj -166 163 s i124;
#X obj -126 163 s i134;
#X obj -86 163 s i144;
#X obj -46 163 s i154;
#X obj -6 163 s i164;
#X obj -552 180 s i13;
#X obj -518 180 s i23;
#X obj -482 180 s i33;
#X obj -450 180 s i43;
#X obj -416 180 s i53;
#X obj -382 180 s i63;
#X obj -348 180 s i73;
#X obj -314 180 s i83;
#X obj -280 180 s i93;
#X obj -246 180 s i103;
#X obj -206 180 s i113;
#X obj -166 180 s i123;
#X obj -126 180 s i133;
#X obj -86 180 s i143;
#X obj -46 180 s i153;
#X obj -6 180 s i163;
#X obj -518 198 s i22;
#X obj -552 198 s i12;
#X obj -482 198 s i32;
#X obj -450 198 s i42;
#X obj -416 198 s i52;
#X obj -382 198 s i62;
#X obj -348 198 s i72;
#X obj -314 198 s i82;
#X obj -280 198 s i92;
#X obj -246 198 s i102;
#X obj -206 198 s i112;
#X obj -166 198 s i122;
#X obj -126 198 s i132;
#X obj -86 198 s i142;
#X obj -46 198 s i152;
#X obj -6 198 s i162;
#X obj -552 216 s i11;
#X obj -206 216 s i111;
#X obj -518 216 s i21;
#X obj -484 216 s i31;
#X obj -450 216 s i41;
#X obj -416 216 s i51;
#X obj -382 216 s i61;
#X obj -348 216 s i71;
#X obj -314 215 s i81;
#X obj -279 217 s i91;
#X obj -246 216 s i101;
#X obj -166 216 s i121;
#X obj -126 216 s i131;
#X obj -86 216 s i141;
#X obj -46 216 s i151;
#X obj -6 216 s i161;
#X msg -552 119 0;
#X obj -552 6 inlet;
#X obj -552 28 bng 15 250 50 0 empty empty empty 17 7 0 10 -262144
-1 -1;
#X text -191 135 Deshabilita toggle de cada paso & voz;
#X obj 163 268 s r_voz_uno;
#X obj 154 290 s r_voz_dos;
#X obj 140 314 s r_voz_tres;
#X obj 122 337 s r_voz_cuatro;
#X obj 24 324 s b_voz_uno;
#X obj 1 345 s b_voz_dos;
#X obj -21 366 s b_voz_tres;
#X obj -44 388 s b_voz_cuatro;
#X obj 91 43 bng 15 250 50 0 empty empty empty 17 7 0 10 -262144 -1
-1;
#X msg 91 133 0;
#X text 120 354 Ritmo por defecto;
#X text -26 416 Banco por defecto;
#X obj 180 176 s rv1;
#X obj 180 193 s rv2;
#X obj 180 210 s rv3;
#X obj 180 228 s rv4;
#X msg 124 42 1;
#X obj 189 72 s vv1;
#X obj 189 89 s vv2;
#X obj 189 106 s vv3;
#X obj 189 124 s vv4;
#X text 226 196 Reverb wet a 0;
#X text 234 92 Volumen canales a 1;
#X obj 189 55 s master_vol;
#X connect 64 0 0 0;
#X connect 64 0 1 0;
#X connect 64 0 2 0;
#X connect 64 0 3 0;
#X connect 64 0 4 0;
#X connect 64 0 5 0;
#X connect 64 0 6 0;
#X connect 64 0 7 0;
#X connect 64 0 8 0;
#X connect 64 0 9 0;
#X connect 64 0 10 0;
#X connect 64 0 11 0;
#X connect 64 0 12 0;
#X connect 64 0 13 0;
#X connect 64 0 14 0;
#X connect 64 0 15 0;
#X connect 64 0 16 0;
#X connect 64 0 17 0;
#X connect 64 0 18 0;
#X connect 64 0 19 0;
#X connect 64 0 20 0;
#X connect 64 0 21 0;
#X connect 64 0 22 0;
#X connect 64 0 23 0;
#X connect 64 0 24 0;
#X connect 64 0 25 0;
#X connect 64 0 26 0;
#X connect 64 0 27 0;
#X connect 64 0 28 0;
#X connect 64 0 29 0;
#X connect 64 0 30 0;
#X connect 64 0 31 0;
#X connect 64 0 33 0;
#X connect 64 0 32 0;
#X connect 64 0 34 0;
#X connect 64 0 35 0;
#X connect 64 0 36 0;
#X connect 64 0 37 0;
#X connect 64 0 38 0;
#X connect 64 0 39 0;
#X connect 64 0 40 0;
#X connect 64 0 41 0;
#X connect 64 0 42 0;
#X connect 64 0 43 0;
#X connect 64 0 44 0;
#X connect 64 0 45 0;
#X connect 64 0 46 0;
#X connect 64 0 47 0;
#X connect 64 0 48 0;
#X connect 64 0 50 0;
#X connect 64 0 51 0;
#X connect 64 0 52 0;
#X connect 64 0 53 0;
#X connect 64 0 54 0;
#X connect 64 0 55 0;
#X connect 64 0 56 0;
#X connect 64 0 57 0;
#X connect 64 0 58 0;
#X connect 64 0 49 0;
#X connect 64 0 59 0;
#X connect 64 0 60 0;
#X connect 64 0 61 0;
#X connect 64 0 62 0;
#X connect 64 0 63 0;
#X connect 65 0 66 0;
#X connect 66 0 64 0;
#X connect 66 0 76 0;
#X connect 76 0 77 0;
#X connect 76 0 84 0;
#X connect 77 0 68 0;
#X connect 77 0 69 0;
#X connect 77 0 70 0;
#X connect 77 0 71 0;
#X connect 77 0 72 0;
#X connect 77 0 73 0;
#X connect 77 0 74 0;
#X connect 77 0 75 0;
#X connect 77 0 83 0;
#X connect 77 0 82 0;
#X connect 77 0 81 0;
#X connect 77 0 80 0;
#X connect 84 0 85 0;
#X connect 84 0 86 0;
#X connect 84 0 87 0;
#X connect 84 0 88 0;
#X connect 84 0 91 0;
