#N canvas 206 223 1027 457 10;
#X obj 76 19 inlet~;
#X obj 305 320 freeverb~;
#X msg 356 262 roomsize \$1;
#X msg 270 179 wet \$1;
#X obj 123 20 inlet;
#X obj 305 339 outlet~;
#X obj 270 41 r rev_start;
#X obj 274 70 bng 15 250 50 0 empty empty empty 17 7 0 10 -262144 -1
-1;
#X msg 296 93 1;
#X obj 639 126 random 10;
#X floatatom 693 170 5 0 0 0 - - -;
#X msg 263 100 0.5;
#X msg 373 192 damping \$1;
#X msg 404 32 width \$1;
#X obj 301 118 print;
#X obj 706 211 / 10;
#X obj 637 60 r m_general;
#X floatatom 706 277 5 0 0 0 - - -;
#X obj 707 246 + 0;
#X connect 0 0 1 0;
#X connect 1 0 5 0;
#X connect 2 0 1 0;
#X connect 3 0 1 0;
#X connect 4 0 3 0;
#X connect 6 0 7 0;
#X connect 7 0 11 0;
#X connect 7 0 8 0;
#X connect 7 0 14 0;
#X connect 8 0 13 0;
#X connect 9 0 10 0;
#X connect 10 0 15 0;
#X connect 11 0 12 0;
#X connect 12 0 1 0;
#X connect 13 0 1 0;
#X connect 15 0 18 0;
#X connect 16 0 9 0;
#X connect 18 0 13 0;
#X connect 18 0 17 0;
#X connect 18 0 2 0;
