#N canvas 306 33 355 522 10;
#X obj 16 -155 inlet;
#X obj 16 -138 route 0 1 2 3 4 5 6 7 8 9;
#X obj 17 322 s vv1;
#X obj 148 -93 s master_vol;
#X obj 133 -40 s master_tempo;
#X obj 31 278 s vv2;
#X obj 46 235 s vv3;
#X obj 61 193 s vv4;
#X obj 75 134 s rv1;
#X obj 90 94 s rv2;
#X obj 105 53 s rv3;
#X obj 119 12 s rv4;
#X text 228 -92 ---> Volumen general;
#X text 236 -38 ---> Tempo;
#X text 149 67 ---> Reverb individual;
#X text 101 236 ---> Volumen individual;
#X floatatom 92 313 5 0 0 0 - - -;
#X obj 17 299 / -63;
#X obj 31 258 / -63;
#X obj 46 215 / -63;
#X obj 61 173 / -63;
#X obj 75 114 / -63;
#X obj 90 74 / -63;
#X obj 105 33 / -63;
#X obj 119 -8 / -63;
#X obj 148 -114 / -63;
#X floatatom 212 5 5 0 0 0 - - -;
#X obj 133 -61 expr -2*$f1 + 60;
#X connect 0 0 1 0;
#X connect 1 0 17 0;
#X connect 1 1 18 0;
#X connect 1 2 19 0;
#X connect 1 3 20 0;
#X connect 1 4 21 0;
#X connect 1 5 22 0;
#X connect 1 6 23 0;
#X connect 1 7 24 0;
#X connect 1 8 27 0;
#X connect 1 9 25 0;
#X connect 17 0 2 0;
#X connect 17 0 16 0;
#X connect 18 0 5 0;
#X connect 19 0 6 0;
#X connect 20 0 7 0;
#X connect 21 0 8 0;
#X connect 22 0 9 0;
#X connect 23 0 10 0;
#X connect 24 0 11 0;
#X connect 25 0 3 0;
#X connect 27 0 4 0;
#X connect 27 0 26 0;
