#N canvas 126 42 1075 618 10;
#X obj 414 191 metro 300;
#X obj 414 276 bng 75 250 50 0 empty empty empty 17 7 0 10 -262144
-1 -1;
#X obj 517 754 gate;
#X obj 517 788 bng 15 250 50 0 empty empty empty 17 7 0 10 -262144
-1 -1;
#X obj 517 726 tgl 15 0 empty empty empty 17 7 0 10 -262144 -1 -1 0
1;
#X obj 625 127 tgl 60 0 i_1_1 empty 1_1 17 7 0 10 -262144 -1 -1 0 1
;
#X obj 704 125 tgl 60 0 i_1_2 empty 1_2 17 7 0 10 -262144 -1 -1 0 1
;
#X obj 777 126 tgl 60 0 i_1_3 empty 1_3 17 7 0 10 -262144 -1 -1 0 1
;
#X obj 850 128 tgl 60 0 i_1_4 empty 1_4 17 7 0 10 -262144 -1 -1 0 1
;
#X obj 921 129 tgl 60 0 i_1_5 empty 1_5 17 7 0 10 -262144 -1 -1 0 1
;
#X obj 991 128 tgl 60 0 i_1_6 empty 1_6 17 7 0 10 -262144 -1 -1 0 1
;
#X obj 1060 128 tgl 60 0 i_1_7 empty 1_7 17 7 0 10 -262144 -1 -1 0
1;
#X obj 1131 126 tgl 60 0 i_1_8 empty 1_8 17 7 0 10 -262144 -1 -1 0
1;
#X obj 1201 125 tgl 60 0 i_1_9 empty 1_9 17 7 0 10 -262144 -1 -1 0
1;
#X obj 1271 126 tgl 60 0 i_1_10 empty 1_10 17 7 0 10 -262144 -1 -1
0 1;
#X obj 1338 125 tgl 60 0 i_1_11 empty 1_11 17 7 0 10 -262144 -1 -1
0 1;
#X obj 1405 124 tgl 60 0 i_1_12 empty 1_12 17 7 0 10 -262144 -1 -1
0 1;
#X obj 1473 124 tgl 60 0 i_1_13 empty 1_13 17 7 0 10 -262144 -1 -1
0 1;
#X obj 1541 125 tgl 60 0 i_1_14 empty 1_14 17 7 0 10 -262144 -1 -1
0 1;
#X obj 1608 126 tgl 60 0 i_1_15 empty 1_15 17 7 0 10 -262144 -1 -1
0 1;
#X obj 1676 127 tgl 60 0 i_1_16 empty 1_16 17 7 0 10 -262144 -1 -1
0 1;
#X obj 628 191 bng 60 250 50 0 empty o_1_1 1_1 17 7 0 10 -262144 -1
-1;
#X obj 700 192 bng 60 250 50 0 empty o_1_2 1_2 17 7 0 10 -262144 -1
-1;
#X obj 773 194 bng 60 250 50 0 empty o_1_3 1_3 17 7 0 10 -262144 -1
-1;
#X obj 843 195 bng 60 250 50 0 empty o_1_4 1_4 17 7 0 10 -262144 -1
-1;
#X obj 911 194 bng 60 250 50 0 empty o_1_5 1_5 17 7 0 10 -262144 -1
-1;
#X obj 978 196 bng 60 250 50 0 empty o_1_6 1_6 17 7 0 10 -262144 -1
-1;
#X obj 1047 197 bng 60 250 50 0 empty o_1_7 1_7 17 7 0 10 -262144 -1
-1;
#X obj 1121 198 bng 60 250 50 0 empty o_1_8 1_8 17 7 0 10 -262144 -1
-1;
#X obj 1195 197 bng 60 250 50 0 empty o_1_9 1_9 17 7 0 10 -262144 -1
-1;
#X obj 1267 198 bng 60 250 50 0 empty o_1_10 1_10 17 7 0 10 -262144
-1 -1;
#X obj 1334 198 bng 60 250 50 0 empty o_1_11 1_11 17 7 0 10 -262144
-1 -1;
#X obj 1401 199 bng 60 250 50 0 empty o_1_12 1_12 17 7 0 10 -262144
-1 -1;
#X obj 1467 200 bng 60 250 50 0 empty o_1_13 1_13 17 7 0 10 -262144
-1 -1;
#X obj 1534 198 bng 60 250 50 0 empty o_1_14 1_14 17 7 0 10 -262144
-1 -1;
#X obj 1602 198 bng 60 250 50 0 empty o_1_15 1_15 17 7 0 10 -262144
-1 -1;
#X obj 1679 198 bng 60 250 50 0 empty o_1_16 1_16 17 7 0 10 -262144
-1 -1;
#X obj 517 834 s o_1_1;
#X obj 516 681 r i_1_1;
#X obj 578 277 float;
#X obj 625 275 + 1;
#X floatatom 647 313 5 0 0 0 - - -;
#X floatatom 527 375 5 0 0 0 - - -;
#X obj 618 600 route 0 1 2 3 4 5 6 7 8 9 10 11 12 13 14 15;
#X obj 594 760 gate;
#X obj 594 794 bng 15 250 50 0 empty empty empty 17 7 0 10 -262144
-1 -1;
#X obj 594 732 tgl 15 0 empty empty empty 17 7 0 10 -262144 -1 -1 0
1;
#X obj 668 760 gate;
#X obj 668 794 bng 15 250 50 0 empty empty empty 17 7 0 10 -262144
-1 -1;
#X obj 668 732 tgl 15 0 empty empty empty 17 7 0 10 -262144 -1 -1 0
1;
#X obj 734 763 gate;
#X obj 734 797 bng 15 250 50 0 empty empty empty 17 7 0 10 -262144
-1 -1;
#X obj 734 735 tgl 15 0 empty empty empty 17 7 0 10 -262144 -1 -1 0
1;
#X obj 796 763 gate;
#X obj 796 797 bng 15 250 50 0 empty empty empty 17 7 0 10 -262144
-1 -1;
#X obj 796 735 tgl 15 0 empty empty empty 17 7 0 10 -262144 -1 -1 0
1;
#X obj 857 763 gate;
#X obj 857 797 bng 15 250 50 0 empty empty empty 17 7 0 10 -262144
-1 -1;
#X obj 857 735 tgl 15 0 empty empty empty 17 7 0 10 -262144 -1 -1 0
1;
#X obj 918 763 gate;
#X obj 918 797 bng 15 250 50 0 empty empty empty 17 7 0 10 -262144
-1 -1;
#X obj 918 735 tgl 15 0 empty empty empty 17 7 0 10 -262144 -1 -1 0
1;
#X obj 979 761 gate;
#X obj 979 795 bng 15 250 50 0 empty empty empty 17 7 0 10 -262144
-1 -1;
#X obj 979 733 tgl 15 0 empty empty empty 17 7 0 10 -262144 -1 -1 0
1;
#X obj 1037 759 gate;
#X obj 1037 793 bng 15 250 50 0 empty empty empty 17 7 0 10 -262144
-1 -1;
#X obj 1037 731 tgl 15 0 empty empty empty 17 7 0 10 -262144 -1 -1
0 1;
#X obj 1104 755 gate;
#X obj 1104 789 bng 15 250 50 0 empty empty empty 17 7 0 10 -262144
-1 -1;
#X obj 1104 727 tgl 15 0 empty empty empty 17 7 0 10 -262144 -1 -1
0 1;
#X obj 1164 754 gate;
#X obj 1164 788 bng 15 250 50 0 empty empty empty 17 7 0 10 -262144
-1 -1;
#X obj 1164 726 tgl 15 0 empty empty empty 17 7 0 10 -262144 -1 -1
0 1;
#X obj 1230 754 gate;
#X obj 1230 788 bng 15 250 50 0 empty empty empty 17 7 0 10 -262144
-1 -1;
#X obj 1230 726 tgl 15 0 empty empty empty 17 7 0 10 -262144 -1 -1
0 1;
#X obj 1299 749 gate;
#X obj 1299 783 bng 15 250 50 0 empty empty empty 17 7 0 10 -262144
-1 -1;
#X obj 1299 721 tgl 15 0 empty empty empty 17 7 0 10 -262144 -1 -1
0 1;
#X obj 1362 748 gate;
#X obj 1362 782 bng 15 250 50 0 empty empty empty 17 7 0 10 -262144
-1 -1;
#X obj 1362 720 tgl 15 0 empty empty empty 17 7 0 10 -262144 -1 -1
0 1;
#X obj 1426 748 gate;
#X obj 1426 782 bng 15 250 50 0 empty empty empty 17 7 0 10 -262144
-1 -1;
#X obj 1426 720 tgl 15 0 empty empty empty 17 7 0 10 -262144 -1 -1
0 1;
#X obj 1486 749 gate;
#X obj 1486 783 bng 15 250 50 0 empty empty empty 17 7 0 10 -262144
-1 -1;
#X obj 1486 721 tgl 15 0 empty empty empty 17 7 0 10 -262144 -1 -1
0 1;
#X obj 593 687 r i_1_2;
#X obj 667 687 r i_1_3;
#X obj 733 690 r i_1_4;
#X obj 796 690 r i_1_5;
#X obj 856 690 r i_1_6;
#X obj 917 690 r i_1_7;
#X obj 978 688 r i_1_8;
#X obj 1036 686 r i_1_9;
#X obj 1103 682 r i_1_10;
#X obj 1163 681 r i_1_11;
#X obj 1229 681 r i_1_12;
#X obj 1297 674 r i_1_13;
#X obj 1361 675 r i_1_14;
#X obj 1425 675 r i_1_15;
#X obj 1485 676 r i_1_16;
#X floatatom 480 126 5 0 0 0 - - -;
#X obj 594 840 s o_1_2;
#X obj 668 840 s o_1_3;
#X obj 734 843 s o_1_4;
#X obj 796 843 s o_1_5;
#X obj 857 843 s o_1_6;
#X obj 918 843 s o_1_7;
#X obj 979 841 s o_1_8;
#X obj 1037 839 s o_1_9;
#X obj 1104 835 s o_1_10;
#X obj 1164 834 s o_1_11;
#X obj 1230 834 s o_1_12;
#X obj 1299 829 s o_1_13;
#X obj 1362 828 s o_1_14;
#X obj 1426 828 s o_1_15;
#X obj 1486 829 s o_1_16;
#X msg 461 59 0;
#X obj 972 948 s voz_1;
#X msg 211 591 open archivo.aiff;
#X obj 319 160 tgl 15 0 empty empty empty 17 7 0 10 -262144 -1 -1 0
1;
#X msg 206 557 openpanel;
#X msg 581 233 0;
#X obj 681 1158 mtof;
#X obj 77 429 r voz_1;
#X obj 681 1199 phasor~;
#X obj 682 1237 bp~ 220 5;
#X obj 685 1280 dac~;
#X obj 784 1196 * 1.5;
#X obj 78 490 f;
#X obj 144 260 vsl 15 128 0 127 0 0 empty empty empty 0 -9 0 10 -262144
-1 -1 0 1;
#X obj 513 1021 f;
#X obj 551 880 vsl 15 128 0 127 0 0 empty empty empty 0 -9 0 10 -262144
-1 -1 0 1;
#X obj 598 1033 f;
#X obj 631 876 vsl 15 128 0 127 0 0 empty empty empty 0 -9 0 10 -262144
-1 -1 0 1;
#X obj 670 1039 f;
#X obj 703 882 vsl 15 128 0 127 0 0 empty empty empty 0 -9 0 10 -262144
-1 -1 0 1;
#X obj 739 1049 f;
#X obj 772 892 vsl 15 128 0 127 0 0 empty empty empty 0 -9 0 10 -262144
-1 -1 0 1;
#X obj 791 1058 f;
#X obj 824 901 vsl 15 128 0 127 0 0 empty empty empty 0 -9 0 10 -262144
-1 -1 0 1;
#X obj 853 1077 f;
#X obj 886 920 vsl 15 128 0 127 0 0 empty empty empty 0 -9 0 10 -262144
-1 -1 0 1;
#X obj 912 1119 f;
#X obj 945 962 vsl 15 128 0 127 0 0 empty empty empty 0 -9 0 10 -262144
-1 -1 0 1;
#X obj 970 1160 f;
#X obj 1003 1003 vsl 15 128 0 127 0 0 empty empty empty 0 -9 0 10 -262144
-1 -1 0 1;
#X obj 1032 1107 f;
#X obj 1065 950 vsl 15 128 0 127 0 0 empty empty empty 0 -9 0 10 -262144
-1 -1 0 1;
#X obj 1097 1069 f;
#X obj 1130 912 vsl 15 128 0 127 0 0 empty empty empty 0 -9 0 10 -262144
-1 -1 0 1;
#X obj 1159 1052 f;
#X obj 1192 895 vsl 15 128 0 127 0 0 empty empty empty 0 -9 0 10 -262144
-1 -1 0 1;
#X obj 1231 1052 f;
#X obj 1264 895 vsl 15 128 0 127 0 0 empty empty empty 0 -9 0 10 -262144
-1 -1 0 1;
#X obj 1298 1035 f;
#X obj 1331 878 vsl 15 128 0 127 0 0 empty empty empty 0 -9 0 10 -262144
-1 -1 0 1;
#X obj 1355 1034 f;
#X obj 1388 877 vsl 15 128 0 127 0 0 empty empty empty 0 -9 0 10 -262144
-1 -1 0 1;
#X obj 1420 1031 f;
#X obj 1453 874 vsl 15 128 0 127 0 0 empty empty empty 0 -9 0 10 -262144
-1 -1 0 1;
#X obj 1476 1018 f;
#X obj 1509 861 vsl 15 128 0 127 0 0 empty empty empty 0 -9 0 10 -262144
-1 -1 0 1;
#X obj 874 309 route 0 1 2 3 4 5 6 7 8 9 10 11 12 13 14 15;
#X obj 692 419 s m1;
#X obj 730 420 s m2;
#X obj 766 421 s m3;
#X obj 805 420 s m4;
#X obj 837 418 s m5;
#X obj 876 421 s m6;
#X obj 909 423 s m7;
#X obj 943 426 s m8;
#X obj 980 429 s m9;
#X obj 1017 429 s m10;
#X obj 1056 436 s m11;
#X obj 1093 431 s m12;
#X obj 1131 431 s m13;
#X obj 1172 430 s m14;
#X obj 1213 428 s m15;
#X obj 1254 428 s m16;
#X obj 579 319 mod 8;
#X msg 511 66 300;
#X connect 0 0 1 0;
#X connect 0 0 39 0;
#X connect 2 0 3 0;
#X connect 3 0 37 0;
#X connect 3 0 121 0;
#X connect 3 0 134 0;
#X connect 4 0 2 0;
#X connect 38 0 4 0;
#X connect 39 0 41 0;
#X connect 39 0 40 0;
#X connect 39 0 183 0;
#X connect 40 0 39 1;
#X connect 43 0 2 1;
#X connect 43 1 44 1;
#X connect 43 2 47 1;
#X connect 43 3 50 1;
#X connect 43 4 53 1;
#X connect 43 5 56 1;
#X connect 43 6 59 1;
#X connect 43 7 62 1;
#X connect 43 8 65 1;
#X connect 43 9 68 1;
#X connect 43 10 71 1;
#X connect 43 11 74 1;
#X connect 43 12 77 1;
#X connect 43 13 80 1;
#X connect 43 14 83 1;
#X connect 43 15 86 1;
#X connect 44 0 45 0;
#X connect 45 0 105 0;
#X connect 45 0 121 0;
#X connect 45 0 136 0;
#X connect 46 0 44 0;
#X connect 47 0 48 0;
#X connect 48 0 106 0;
#X connect 48 0 121 0;
#X connect 48 0 138 0;
#X connect 49 0 47 0;
#X connect 50 0 51 0;
#X connect 51 0 107 0;
#X connect 51 0 121 0;
#X connect 51 0 140 0;
#X connect 52 0 50 0;
#X connect 53 0 54 0;
#X connect 54 0 108 0;
#X connect 54 0 121 0;
#X connect 54 0 142 0;
#X connect 55 0 53 0;
#X connect 56 0 57 0;
#X connect 57 0 109 0;
#X connect 57 0 121 0;
#X connect 57 0 144 0;
#X connect 58 0 56 0;
#X connect 59 0 60 0;
#X connect 60 0 110 0;
#X connect 60 0 121 0;
#X connect 60 0 146 0;
#X connect 61 0 59 0;
#X connect 62 0 63 0;
#X connect 63 0 111 0;
#X connect 63 0 121 0;
#X connect 63 0 148 0;
#X connect 64 0 62 0;
#X connect 65 0 66 0;
#X connect 66 0 112 0;
#X connect 66 0 121 0;
#X connect 66 0 150 0;
#X connect 67 0 65 0;
#X connect 68 0 69 0;
#X connect 69 0 113 0;
#X connect 69 0 121 0;
#X connect 69 0 152 0;
#X connect 70 0 68 0;
#X connect 71 0 72 0;
#X connect 72 0 114 0;
#X connect 72 0 121 0;
#X connect 72 0 154 0;
#X connect 73 0 71 0;
#X connect 74 0 75 0;
#X connect 75 0 115 0;
#X connect 75 0 121 0;
#X connect 75 0 156 0;
#X connect 76 0 74 0;
#X connect 77 0 78 0;
#X connect 78 0 116 0;
#X connect 78 0 121 0;
#X connect 78 0 158 0;
#X connect 79 0 77 0;
#X connect 80 0 81 0;
#X connect 81 0 117 0;
#X connect 81 0 121 0;
#X connect 81 0 160 0;
#X connect 82 0 80 0;
#X connect 83 0 84 0;
#X connect 83 0 162 0;
#X connect 84 0 118 0;
#X connect 84 0 121 0;
#X connect 85 0 83 0;
#X connect 86 0 87 0;
#X connect 87 0 119 0;
#X connect 87 0 121 0;
#X connect 87 0 164 0;
#X connect 88 0 86 0;
#X connect 89 0 46 0;
#X connect 90 0 49 0;
#X connect 91 0 52 0;
#X connect 92 0 55 0;
#X connect 93 0 58 0;
#X connect 94 0 61 0;
#X connect 95 0 64 0;
#X connect 96 0 67 0;
#X connect 97 0 70 0;
#X connect 98 0 73 0;
#X connect 99 0 76 0;
#X connect 100 0 79 0;
#X connect 101 0 82 0;
#X connect 102 0 85 0;
#X connect 103 0 88 0;
#X connect 104 0 0 1;
#X connect 120 0 0 1;
#X connect 123 0 0 0;
#X connect 125 0 39 0;
#X connect 126 0 131 0;
#X connect 127 0 132 0;
#X connect 129 0 130 0;
#X connect 129 0 130 1;
#X connect 131 0 129 1;
#X connect 133 0 132 1;
#X connect 134 0 126 0;
#X connect 135 0 134 1;
#X connect 136 0 126 0;
#X connect 137 0 136 1;
#X connect 138 0 126 0;
#X connect 139 0 138 1;
#X connect 140 0 126 0;
#X connect 141 0 140 1;
#X connect 142 0 126 0;
#X connect 143 0 142 1;
#X connect 144 0 126 0;
#X connect 145 0 144 1;
#X connect 146 0 126 0;
#X connect 147 0 146 1;
#X connect 148 0 126 0;
#X connect 149 0 148 1;
#X connect 150 0 126 0;
#X connect 151 0 150 1;
#X connect 152 0 126 0;
#X connect 153 0 152 1;
#X connect 154 0 126 0;
#X connect 155 0 154 1;
#X connect 156 0 126 0;
#X connect 157 0 156 1;
#X connect 158 0 126 0;
#X connect 159 0 158 1;
#X connect 160 0 126 0;
#X connect 161 0 160 1;
#X connect 162 0 126 0;
#X connect 163 0 162 1;
#X connect 164 0 126 0;
#X connect 165 0 164 1;
#X connect 166 0 167 0;
#X connect 166 1 168 0;
#X connect 166 2 169 0;
#X connect 166 3 170 0;
#X connect 166 4 171 0;
#X connect 166 5 172 0;
#X connect 166 6 173 0;
#X connect 166 7 174 0;
#X connect 166 8 175 0;
#X connect 166 9 176 0;
#X connect 166 10 177 0;
#X connect 166 11 178 0;
#X connect 166 12 179 0;
#X connect 166 13 180 0;
#X connect 166 14 181 0;
#X connect 166 15 182 0;
#X connect 183 0 42 0;
#X connect 183 0 43 0;
#X connect 183 0 166 0;
#X connect 184 0 0 1;
