#N canvas 123 33 175 226 10;
#X obj -38 99 wode_classicsynth;
#X obj 36 73 / 10;
#X obj -15 24 / 500;
#X obj 11 49 / 2.5;
#X obj -38 142 outlet~;
#X obj -38 -22 inlet;
#X obj 42 -23 inlet;
#X connect 0 0 4 0;
#X connect 1 0 0 3;
#X connect 2 0 0 1;
#X connect 3 0 0 2;
#X connect 5 0 0 0;
#X connect 6 0 2 0;
#X connect 6 0 3 0;
#X connect 6 0 1 0;
