#N canvas 0 22 1279 680 10;
#X declare -lib mrpeach;
#X declare -lib mrpeach;
#X obj 91 331 bng 60 250 50 0 voz_uno o11 empty 17 7 0 10 -262144 -1
-1;
#X obj 91 391 bng 60 250 50 0 voz_dos o12 empty 17 7 0 10 -262144 -1
-1;
#X obj 91 451 bng 60 250 50 0 voz_tres o13 empty 17 7 0 10 -262144
-1 -1;
#X obj 91 511 bng 60 250 50 0 voz_cuatro o14 empty 17 7 0 10 -262144
-1 -1;
#X obj 91 -21 tgl 60 0 i11 empty empty 17 7 0 10 -262144 -1 -1 1 1
;
#X obj 91 63 tgl 60 0 i12 empty empty 17 7 0 10 -262144 -1 -1 0 1;
#X obj 91 148 tgl 60 0 i13 empty empty 17 7 0 10 -262144 -1 -1 1 1
;
#X obj 91 233 tgl 60 0 i14 empty empty 17 7 0 10 -262144 -1 -1 0 1
;
#X obj 151 -21 tgl 60 0 i21 empty empty 17 7 0 10 -262144 -1 -1 1 1
;
#X obj 151 63 tgl 60 0 i22 empty empty 17 7 0 10 -262144 -1 -1 0 1
;
#X obj 151 148 tgl 60 0 i23 empty empty 17 7 0 10 -262144 -1 -1 0 1
;
#X obj 151 233 tgl 60 0 i24 empty empty 17 7 0 10 -262144 -1 -1 0 1
;
#X obj 211 -21 tgl 60 0 i31 empty empty 17 7 0 10 -262144 -1 -1 0 1
;
#X obj 211 63 tgl 60 0 i32 empty empty 17 7 0 10 -262144 -1 -1 1 1
;
#X obj 211 148 tgl 60 0 i33 empty empty 17 7 0 10 -262144 -1 -1 0 1
;
#X obj 211 233 tgl 60 0 i34 empty empty 17 7 0 10 -262144 -1 -1 0 1
;
#X obj 271 -21 tgl 60 0 i41 empty empty 17 7 0 10 -262144 -1 -1 1 1
;
#X obj 271 63 tgl 60 0 i42 empty empty 17 7 0 10 -262144 -1 -1 0 1
;
#X obj 271 148 tgl 60 0 i43 empty empty 17 7 0 10 -262144 -1 -1 0 1
;
#X obj 271 233 tgl 60 0 i44 empty empty 17 7 0 10 -262144 -1 -1 0 1
;
#X obj 331 -21 tgl 60 0 i51 empty empty 17 7 0 10 -262144 -1 -1 1 1
;
#X obj 331 63 tgl 60 0 i52 empty empty 17 7 0 10 -262144 -1 -1 0 1
;
#X obj 331 148 tgl 60 0 i53 empty empty 17 7 0 10 -262144 -1 -1 0 1
;
#X obj 331 233 tgl 60 0 i54 empty empty 17 7 0 10 -262144 -1 -1 0 1
;
#X obj 391 -21 tgl 60 0 i61 empty empty 17 7 0 10 -262144 -1 -1 1 1
;
#X obj 391 63 tgl 60 0 i62 empty empty 17 7 0 10 -262144 -1 -1 0 1
;
#X obj 391 148 tgl 60 0 i63 empty empty 17 7 0 10 -262144 -1 -1 0 1
;
#X obj 391 233 tgl 60 0 i64 empty empty 17 7 0 10 -262144 -1 -1 0 1
;
#X obj 451 -21 tgl 60 0 i71 empty empty 17 7 0 10 -262144 -1 -1 1 1
;
#X obj 451 63 tgl 60 0 i72 empty empty 17 7 0 10 -262144 -1 -1 1 1
;
#X obj 451 148 tgl 60 0 i73 empty empty 17 7 0 10 -262144 -1 -1 0 1
;
#X obj 451 233 tgl 60 0 i74 empty empty 17 7 0 10 -262144 -1 -1 0 1
;
#X obj 511 -21 tgl 60 0 i81 empty empty 17 7 0 10 -262144 -1 -1 1 1
;
#X obj 511 63 tgl 60 0 i82 empty empty 17 7 0 10 -262144 -1 -1 0 1
;
#X obj 511 148 tgl 60 0 i83 empty empty 17 7 0 10 -262144 -1 -1 0 1
;
#X obj 511 233 tgl 60 0 i84 empty empty 17 7 0 10 -262144 -1 -1 0 1
;
#X obj 571 -21 tgl 60 0 i91 empty empty 17 7 0 10 -262144 -1 -1 1 1
;
#X obj 571 63 tgl 60 0 i92 empty empty 17 7 0 10 -262144 -1 -1 0 1
;
#X obj 571 148 tgl 60 0 i93 empty empty 17 7 0 10 -262144 -1 -1 1 1
;
#X obj 571 233 tgl 60 0 i94 empty empty 17 7 0 10 -262144 -1 -1 0 1
;
#X obj 631 -21 tgl 60 0 i101 empty empty 17 7 0 10 -262144 -1 -1 1
1;
#X obj 631 63 tgl 60 0 i102 empty empty 17 7 0 10 -262144 -1 -1 0 1
;
#X obj 631 148 tgl 60 0 i103 empty empty 17 7 0 10 -262144 -1 -1 0
1;
#X obj 631 233 tgl 60 0 i104 empty empty 17 7 0 10 -262144 -1 -1 0
1;
#X obj 691 -21 tgl 60 0 i111 empty empty 17 7 0 10 -262144 -1 -1 0
1;
#X obj 691 63 tgl 60 0 i112 empty empty 17 7 0 10 -262144 -1 -1 1 1
;
#X obj 691 148 tgl 60 0 i113 empty empty 17 7 0 10 -262144 -1 -1 0
1;
#X obj 691 233 tgl 60 0 i114 empty empty 17 7 0 10 -262144 -1 -1 0
1;
#X obj 751 -21 tgl 60 0 i121 empty empty 17 7 0 10 -262144 -1 -1 1
1;
#X obj 751 63 tgl 60 0 i122 empty empty 17 7 0 10 -262144 -1 -1 0 1
;
#X obj 751 148 tgl 60 0 i123 empty empty 17 7 0 10 -262144 -1 -1 0
1;
#X obj 751 233 tgl 60 0 i124 empty empty 17 7 0 10 -262144 -1 -1 0
1;
#X obj 811 -21 tgl 60 0 i131 empty empty 17 7 0 10 -262144 -1 -1 1
1;
#X obj 811 63 tgl 60 0 i132 empty empty 17 7 0 10 -262144 -1 -1 0 1
;
#X obj 811 148 tgl 60 0 i133 empty empty 17 7 0 10 -262144 -1 -1 0
1;
#X obj 811 233 tgl 60 0 i134 empty empty 17 7 0 10 -262144 -1 -1 0
1;
#X obj 871 -21 tgl 60 0 i141 empty empty 17 7 0 10 -262144 -1 -1 1
1;
#X obj 871 63 tgl 60 0 i142 empty empty 17 7 0 10 -262144 -1 -1 0 1
;
#X obj 871 148 tgl 60 0 i143 empty empty 17 7 0 10 -262144 -1 -1 0
1;
#X obj 871 233 tgl 60 0 i144 empty empty 17 7 0 10 -262144 -1 -1 0
1;
#X obj 931 -21 tgl 60 0 i151 empty empty 17 7 0 10 -262144 -1 -1 1
1;
#X obj 931 63 tgl 60 0 i152 empty empty 17 7 0 10 -262144 -1 -1 1 1
;
#X obj 931 148 tgl 60 0 i153 empty empty 17 7 0 10 -262144 -1 -1 0
1;
#X obj 931 233 tgl 60 0 i154 empty empty 17 7 0 10 -262144 -1 -1 0
1;
#X obj 991 -21 tgl 60 0 i161 empty empty 17 7 0 10 -262144 -1 -1 1
1;
#X obj 991 63 tgl 60 0 i162 empty empty 17 7 0 10 -262144 -1 -1 0 1
;
#X obj 991 148 tgl 60 0 i163 empty empty 17 7 0 10 -262144 -1 -1 0
1;
#X obj 991 233 tgl 60 0 i164 empty empty 17 7 0 10 -262144 -1 -1 0
1;
#X obj 151 331 bng 60 250 50 0 voz_uno o21 empty 17 7 0 10 -262144
-1 -1;
#X obj 151 391 bng 60 250 50 0 voz_dos o22 empty 17 7 0 10 -262144
-1 -1;
#X obj 151 451 bng 60 250 50 0 voz_tres o23 empty 17 7 0 10 -262144
-1 -1;
#X obj 151 511 bng 60 250 50 0 voz_cuatro o24 empty 17 7 0 10 -262144
-1 -1;
#X obj 211 331 bng 60 250 50 0 voz_uno o31 empty 17 7 0 10 -262144
-1 -1;
#X obj 211 391 bng 60 250 50 0 voz_dos o32 empty 17 7 0 10 -262144
-1 -1;
#X obj 211 451 bng 60 250 50 0 voz_tres o33 empty 17 7 0 10 -262144
-1 -1;
#X obj 211 511 bng 60 250 50 0 voz_cuatro o34 empty 17 7 0 10 -262144
-1 -1;
#X obj 271 331 bng 60 250 50 0 voz_uno o41 empty 17 7 0 10 -262144
-1 -1;
#X obj 271 391 bng 60 250 50 0 voz_dos o42 empty 17 7 0 10 -262144
-1 -1;
#X obj 271 451 bng 60 250 50 0 voz_tres o43 empty 17 7 0 10 -262144
-1 -1;
#X obj 271 511 bng 60 250 50 0 voz_cuatro o44 empty 17 7 0 10 -262144
-1 -1;
#X obj 331 331 bng 60 250 50 0 voz_uno o51 empty 17 7 0 10 -262144
-1 -1;
#X obj 331 391 bng 60 250 50 0 voz_dos o52 empty 17 7 0 10 -262144
-1 -1;
#X obj 331 451 bng 60 250 50 0 voz_tres o53 empty 17 7 0 10 -262144
-1 -1;
#X obj 331 511 bng 60 250 50 0 voz_cuatro o54 empty 17 7 0 10 -262144
-1 -1;
#X obj 391 331 bng 60 250 50 0 voz_uno o61 empty 17 7 0 10 -262144
-1 -1;
#X obj 391 391 bng 60 250 50 0 voz_dos o62 empty 17 7 0 10 -262144
-1 -1;
#X obj 391 451 bng 60 250 50 0 voz_tres o63 empty 17 7 0 10 -262144
-1 -1;
#X obj 391 511 bng 60 250 50 0 voz_cuatro o64 empty 17 7 0 10 -262144
-1 -1;
#X obj 451 331 bng 60 250 50 0 voz_uno o71 empty 17 7 0 10 -262144
-1 -1;
#X obj 451 391 bng 60 250 50 0 voz_dos o72 empty 17 7 0 10 -262144
-1 -1;
#X obj 451 451 bng 60 250 50 0 voz_tres o73 empty 17 7 0 10 -262144
-1 -1;
#X obj 451 511 bng 60 250 50 0 voz_cuatro o74 empty 17 7 0 10 -262144
-1 -1;
#X obj 511 331 bng 60 250 50 0 voz_uno o81 empty 17 7 0 10 -262144
-1 -1;
#X obj 511 391 bng 60 250 50 0 voz_dos o82 empty 17 7 0 10 -262144
-1 -1;
#X obj 511 451 bng 60 250 50 0 voz_tres o83 empty 17 7 0 10 -262144
-1 -1;
#X obj 511 511 bng 60 250 50 0 voz_cuatro o84 empty 17 7 0 10 -262144
-1 -1;
#X obj 571 331 bng 60 250 50 0 voz_uno o91 empty 17 7 0 10 -262144
-1 -1;
#X obj 571 391 bng 60 250 50 0 voz_dos o92 empty 17 7 0 10 -262144
-1 -1;
#X obj 571 451 bng 60 250 50 0 voz_tres o93 empty 17 7 0 10 -262144
-1 -1;
#X obj 571 511 bng 60 250 50 0 voz_cuatro o94 empty 17 7 0 10 -262144
-1 -1;
#X obj 631 331 bng 60 250 50 0 voz_uno o101 empty 17 7 0 10 -262144
-1 -1;
#X obj 631 391 bng 60 250 50 0 voz_dos o102 empty 17 7 0 10 -262144
-1 -1;
#X obj 631 451 bng 60 250 50 0 voz_tres o103 empty 17 7 0 10 -262144
-1 -1;
#X obj 631 511 bng 60 250 50 0 voz_cuatro o104 empty 17 7 0 10 -262144
-1 -1;
#X obj 691 331 bng 60 250 50 0 voz_uno o111 empty 17 7 0 10 -262144
-1 -1;
#X obj 691 391 bng 60 250 50 0 voz_dos o112 empty 17 7 0 10 -262144
-1 -1;
#X obj 691 451 bng 60 250 50 0 voz_tres o113 empty 17 7 0 10 -262144
-1 -1;
#X obj 691 511 bng 60 250 50 0 voz_cuatro o114 empty 17 7 0 10 -262144
-1 -1;
#X obj 751 331 bng 60 250 50 0 voz_uno o121 empty 17 7 0 10 -262144
-1 -1;
#X obj 751 391 bng 60 250 50 0 voz_dos o122 empty 17 7 0 10 -262144
-1 -1;
#X obj 751 451 bng 60 250 50 0 voz_tres o123 empty 17 7 0 10 -262144
-1 -1;
#X obj 751 511 bng 60 250 50 0 voz_cuatro o124 empty 17 7 0 10 -262144
-1 -1;
#X obj 811 331 bng 60 250 50 0 voz_uno o131 empty 17 7 0 10 -262144
-1 -1;
#X obj 811 391 bng 60 250 50 0 voz_dos o132 empty 17 7 0 10 -262144
-1 -1;
#X obj 811 451 bng 60 250 50 0 voz_tres o133 empty 17 7 0 10 -262144
-1 -1;
#X obj 811 511 bng 60 250 50 0 voz_cuatro o134 empty 17 7 0 10 -262144
-1 -1;
#X obj 871 331 bng 60 250 50 0 voz_uno o141 empty 17 7 0 10 -262144
-1 -1;
#X obj 871 391 bng 60 250 50 0 voz_dos o142 empty 17 7 0 10 -262144
-1 -1;
#X obj 871 451 bng 60 250 50 0 voz_tres o143 empty 17 7 0 10 -262144
-1 -1;
#X obj 871 511 bng 60 250 50 0 voz_cuatro o144 empty 17 7 0 10 -262144
-1 -1;
#X obj 931 331 bng 60 250 50 0 voz_uno o151 empty 17 7 0 10 -262144
-1 -1;
#X obj 931 391 bng 60 250 50 0 voz_dos o152 empty 17 7 0 10 -262144
-1 -1;
#X obj 931 451 bng 60 250 50 0 voz_tres o153 empty 17 7 0 10 -262144
-1 -1;
#X obj 931 511 bng 60 250 50 0 voz_cuatro o154 empty 17 7 0 10 -262144
-1 -1;
#X obj 991 331 bng 60 250 50 0 voz_uno o161 empty 17 7 0 10 -262144
-1 -1;
#X obj 991 391 bng 60 250 50 0 voz_dos o162 empty 17 7 0 10 -262144
-1 -1;
#X obj 991 451 bng 60 250 50 0 voz_tres o163 empty 17 7 0 10 -262144
-1 -1;
#X obj 991 511 bng 60 250 50 0 voz_cuatro o164 empty 17 7 0 10 -262144
-1 -1;
#X obj 91 314 p1;
#X obj 150 314 p2;
#X obj 211 314 p3;
#X obj 271 314 p4;
#X obj 331 314 p5;
#X obj 391 314 p6;
#X obj 451 314 p7;
#X obj 512 314 p8;
#X obj 1106 100 metro_16_pasos;
#X obj 1106 78 tgl 15 0 empty empty empty 17 7 0 10 -262144 -1 -1 1
1;
#X text 1093 35 on / off;
#X obj 91 -81 bng 60 250 50 0 empty m1 empty 17 7 0 10 -262144 -1 -1
;
#X obj 151 -81 bng 60 250 50 0 empty m2 empty 17 7 0 10 -262144 -1
-1;
#X obj 211 -81 bng 60 250 50 0 empty m3 empty 17 7 0 10 -262144 -1
-1;
#X obj 271 -81 bng 60 250 50 0 empty m4 empty 17 7 0 10 -262144 -1
-1;
#X obj 331 -81 bng 60 250 50 0 empty m5 empty 17 7 0 10 -262144 -1
-1;
#X obj 391 -81 bng 60 250 50 0 empty m6 empty 17 7 0 10 -262144 -1
-1;
#X obj 451 -81 bng 60 250 50 0 empty m7 empty 17 7 0 10 -262144 -1
-1;
#X obj 511 -81 bng 60 250 50 0 empty m8 empty 17 7 0 10 -262144 -1
-1;
#X obj 571 -81 bng 60 250 50 0 empty m9 empty 17 7 0 10 -262144 -1
-1;
#X obj 631 -81 bng 60 250 50 0 empty m10 empty 17 7 0 10 -262144 -1
-1;
#X obj 691 -81 bng 60 250 50 0 empty m11 empty 17 7 0 10 -262144 -1
-1;
#X obj 751 -81 bng 60 250 50 0 empty m12 empty 17 7 0 10 -262144 -1
-1;
#X obj 811 -81 bng 60 250 50 0 empty m13 empty 17 7 0 10 -262144 -1
-1;
#X obj 871 -81 bng 60 250 50 0 empty m14 empty 17 7 0 10 -262144 -1
-1;
#X obj 931 -81 bng 60 250 50 0 empty m15 empty 17 7 0 10 -262144 -1
-1;
#X obj 991 -81 bng 60 250 50 0 empty m16 empty 17 7 0 10 -262144 -1
-1;
#X obj 571 314 p9;
#X obj 631 314 p10;
#X obj 691 314 p11;
#X obj 751 314 p12;
#X obj 811 314 p13;
#X obj 871 314 p14;
#X obj 931 314 p15;
#X obj 991 314 p16;
#X obj 1187 -73 vsl 15 128 70 500 1 1 empty master_tempo empty 0 -9
0 10 -262144 -1 -1 900 1;
#X floatatom 1210 100 5 0 0 0 - - -;
#X text 1204 55 tempo [bpm];
#X obj 91 39 hradio 15 1 0 8 r_voz_uno r_voz_uno empty 0 -8 0 10 -262144
-1 -1 7;
#X obj 91 123 hradio 15 1 0 8 r_voz_dos r_voz_dos empty 0 -8 0 10 -262144
-1 -1 0;
#X obj 91 208 hradio 15 1 0 8 r_voz_tres r_voz_tres empty 0 -8 0 10
-262144 -1 -1 0;
#X obj 91 293 hradio 15 1 0 8 r_voz_cuatro r_voz_cuatro empty 0 -8
0 10 -262144 -1 -1 0;
#X obj 1132 318 bancos_ritmos;
#X obj 961 39 hradio 15 1 0 6 b_voz_uno b_voz_uno empty 0 -8 0 10 -262144
-1 -1 0;
#X obj 961 123 hradio 15 1 0 6 b_voz_dos b_voz_dos empty 0 -8 0 10
-262144 -1 -1 0;
#X obj 961 208 hradio 15 1 0 6 b_voz_tres b_voz_tres empty 0 -8 0 10
-262144 -1 -1 4;
#X obj 961 293 hradio 15 1 0 6 b_voz_cuatro b_voz_cuatro empty 0 -8
0 10 -262144 -1 -1 0;
#X obj 1061 65 vsl 15 70 0 1 0 0 rv2 empty empty 0 -9 0 10 -262144
-1 -1 0 1;
#X obj 1061 -19 vsl 15 70 0 1 0 0 rv1 empty empty 0 -9 0 10 -262144
-1 -1 0 1;
#X obj 1061 150 vsl 15 70 0 1 0 0 rv3 empty empty 0 -9 0 10 -262144
-1 -1 0 1;
#X obj 1060 235 vsl 15 70 0 1 0 0 rv4 empty empty 0 -9 0 10 -262144
-1 -1 0 1;
#X obj 65 65 vsl 15 70 0 1 0 0 vv2 empty empty 0 -9 0 10 -262144 -1
-1 6900 1;
#X obj 65 -19 vsl 15 70 0 1 0 0 vv1 empty empty 0 -9 0 10 -262144 -1
-1 6900 1;
#X obj 65 150 vsl 15 70 0 1 0 0 vv3 empty empty 0 -9 0 10 -262144 -1
-1 6900 1;
#X obj 64 235 vsl 15 70 0 1 0 0 vv4 empty empty 0 -9 0 10 -262144 -1
-1 0 1;
#X obj 1133 339 bng 15 250 50 0 empty empty empty 17 7 0 10 -262144
-1 -1;
#X obj 1133 361 reset;
#X obj 1108 132 vsl 15 128 0 1 0 0 master_vol empty empty 0 -9 0 10
-262144 -1 -1 11900 1;
#X obj 1106 55 r onOff;
#X obj 1134 386 inputProcessing;
#X connect 137 0 136 0;
#X connect 163 0 164 0;
#X connect 163 0 136 1;
#X connect 183 0 184 0;
#X connect 186 0 137 0;
