#N canvas 123 33 671 502 10;
#X obj 158 346 output~;
#X obj 239 41 key;
#X obj 289 72 / 2;
#X obj 24 1;
#X obj 81 14 tgl 15 0 empty empty empty 17 7 0 10 -262144 -1 -1 1 1
;
#X msg 68 75 52;
#X obj 162 120 wode_classicsynth;
#X msg 350 50;
#X floatatom 352 90 5 0 0 0 - - -;
#X floatatom 390 185 5 0 0 0 - - -;
#X obj 406 21 vsl 15 128 0 1 0 0 empty empty empty 0 -9 0 10 -262144
-1 -1 10800 1;
#X floatatom 305 171 5 0 0 0 - - -;
#X obj 27 34 metro 1000;
#X obj 496 -9 vsl 15 128 0 500 0 0 empty empty empty 0 -9 0 10 -262144
-1 -1 4600 1;
#X obj 446 19 / 10;
#X obj 340 -21 / 500;
#X obj 585 120;
#X obj 405 -36 / 2.5;
#X obj 211 220 synth_uno;
#X obj 72 118 * 2;
#X obj 503 183 s parcial_uno;
#X obj 96 281 r parcial_uno;
#X obj 162 251 *~;
#X floatatom 100 322 5 0 0 0 - - -;
#X floatatom 556 42 5 0 0 0 - - -;
#X floatatom 603 146 5 0 0 0 - - -;
#X obj 504 149 / 10000;
#X obj 54 205 synth_uno;
#X obj 54 250 +~;
#X obj -61 266 r parcial_uno;
#X obj 5 236 *~;
#X obj 12 158 * 1.7;
#X obj 211 265 +~;
#X connect 1 0 2 0;
#X connect 4 0 12 0;
#X connect 5 0 6 0;
#X connect 5 0 19 0;
#X connect 5 0 31 0;
#X connect 6 0 32 1;
#X connect 8 0 6 1;
#X connect 9 0 6 4;
#X connect 10 0 6 1;
#X connect 11 0 6 3;
#X connect 12 0 5 0;
#X connect 13 0 6 4;
#X connect 13 0 14 0;
#X connect 13 0 15 0;
#X connect 13 0 17 0;
#X connect 13 0 26 0;
#X connect 14 0 6 3;
#X connect 15 0 6 1;
#X connect 17 0 6 2;
#X connect 18 0 22 0;
#X connect 19 0 18 0;
#X connect 21 0 22 1;
#X connect 21 0 23 0;
#X connect 22 0 32 0;
#X connect 26 0 20 0;
#X connect 27 0 30 0;
#X connect 29 0 30 1;
#X connect 30 0 28 0;
#X connect 31 0 27 0;
#X connect 32 0 0 0;
#X connect 32 0 0 1;
