#N canvas 0 22 961 546 10;
#X obj 295 50 route 0 1 2 3;
#X obj 294 398 route 0 1 2 3 4 5 6 7 8 9 10 11 12 13 14 15;
#X obj -13 507 s i11;
#X obj 333 507 s i111;
#X obj 312 306 route 0 1 2 3 4 5 6 7 8 9 10 11 12 13 14 15;
#X obj 346 369 s i22;
#X obj 21 507 s i21;
#X obj 55 507 s i31;
#X obj 89 507 s i41;
#X obj 123 507 s i51;
#X obj 157 507 s i61;
#X obj 191 507 s i71;
#X obj 225 506 s i81;
#X obj 260 508 s i91;
#X obj 293 507 s i101;
#X obj 373 507 s i121;
#X obj 413 507 s i131;
#X obj 453 507 s i141;
#X obj 493 507 s i151;
#X obj 533 507 s i161;
#X obj 312 369 s i12;
#X obj 382 369 s i32;
#X obj 414 369 s i42;
#X obj 448 369 s i52;
#X obj 482 369 s i62;
#X obj 516 369 s i72;
#X obj 550 369 s i82;
#X obj 584 369 s i92;
#X obj 618 369 s i102;
#X obj 658 369 s i112;
#X obj 698 369 s i122;
#X obj 738 369 s i132;
#X obj 778 369 s i142;
#X obj 818 369 s i152;
#X obj 858 369 s i162;
#X obj 331 237 route 0 1 2 3 4 5 6 7 8 9 10 11 12 13 14 15;
#X obj 331 272 s i13;
#X obj 365 272 s i23;
#X obj 401 272 s i33;
#X obj 433 272 s i43;
#X obj 467 272 s i53;
#X obj 501 272 s i63;
#X obj 535 272 s i73;
#X obj 569 272 s i83;
#X obj 603 272 s i93;
#X obj 637 272 s i103;
#X obj 677 272 s i113;
#X obj 717 272 s i123;
#X obj 757 272 s i133;
#X obj 797 272 s i143;
#X obj 837 272 s i153;
#X obj 877 272 s i163;
#X obj 350 168 route 0 1 2 3 4 5 6 7 8 9 10 11 12 13 14 15;
#X obj 350 207 s i14;
#X obj 384 207 s i24;
#X obj 420 207 s i34;
#X obj 452 207 s i44;
#X obj 486 207 s i54;
#X obj 520 207 s i64;
#X obj 554 207 s i74;
#X obj 588 207 s i84;
#X obj 622 207 s i94;
#X obj 656 207 s i104;
#X obj 696 207 s i114;
#X obj 736 207 s i124;
#X obj 776 207 s i134;
#X obj 816 207 s i144;
#X obj 856 207 s i154;
#X obj 896 207 s i164;
#X obj 295 6 inlet;
#X connect 0 0 1 0;
#X connect 0 1 4 0;
#X connect 0 2 35 0;
#X connect 0 3 52 0;
#X connect 1 0 2 0;
#X connect 1 1 6 0;
#X connect 1 2 7 0;
#X connect 1 3 8 0;
#X connect 1 4 9 0;
#X connect 1 5 10 0;
#X connect 1 6 11 0;
#X connect 1 7 12 0;
#X connect 1 8 13 0;
#X connect 1 9 14 0;
#X connect 1 10 3 0;
#X connect 1 11 15 0;
#X connect 1 12 16 0;
#X connect 1 13 17 0;
#X connect 1 14 18 0;
#X connect 1 15 19 0;
#X connect 4 0 20 0;
#X connect 4 1 5 0;
#X connect 4 2 21 0;
#X connect 4 3 22 0;
#X connect 4 4 23 0;
#X connect 4 5 24 0;
#X connect 4 6 25 0;
#X connect 4 7 26 0;
#X connect 4 8 27 0;
#X connect 4 9 28 0;
#X connect 4 10 29 0;
#X connect 4 11 30 0;
#X connect 4 12 31 0;
#X connect 4 13 32 0;
#X connect 4 14 33 0;
#X connect 4 15 34 0;
#X connect 35 0 36 0;
#X connect 35 1 37 0;
#X connect 35 2 38 0;
#X connect 35 3 39 0;
#X connect 35 4 40 0;
#X connect 35 5 41 0;
#X connect 35 6 42 0;
#X connect 35 7 43 0;
#X connect 35 8 44 0;
#X connect 35 9 45 0;
#X connect 35 10 46 0;
#X connect 35 11 47 0;
#X connect 35 12 48 0;
#X connect 35 13 49 0;
#X connect 35 14 50 0;
#X connect 35 15 51 0;
#X connect 52 0 53 0;
#X connect 52 1 54 0;
#X connect 52 2 55 0;
#X connect 52 3 56 0;
#X connect 52 4 57 0;
#X connect 52 5 58 0;
#X connect 52 6 59 0;
#X connect 52 7 60 0;
#X connect 52 8 61 0;
#X connect 52 9 62 0;
#X connect 52 10 63 0;
#X connect 52 11 64 0;
#X connect 52 12 65 0;
#X connect 52 13 66 0;
#X connect 52 14 67 0;
#X connect 52 15 68 0;
#X connect 69 0 0 0;
