#N canvas 138 493 752 262 10;
#X obj 428 13 inlet bandwidth;
#X obj 291 -19 inlet generate;
#N canvas 291 614 569 300 play 0;
#X obj 122 255 outlet~;
#X obj 106 56 inlet~ freq;
#X obj 184 60 inlet phase;
#X obj 318 44 inlet table;
#X obj 110 118 tabosc4~ \$0.wt0;
#X obj 239 112 tabosc4~ \$0.wt1;
#X obj 147 221 *~;
#X obj 211 229 *~;
#N canvas 0 22 450 300 not~ 0;
#X obj 204 45 inlet~;
#X obj 197 108 -~;
#X obj 164 78 sig~ 1;
#X obj 205 157 outlet~;
#X connect 0 0 1 1;
#X connect 1 0 3 0;
#X connect 2 0 1 0;
#X restore 328 242 pd not~;
#X obj 386 192 f;
#X obj 455 137 r \$0.secpblck;
#X obj 396 238 pack f f;
#X obj 323 213 line~;
#X obj 462 213 f;
#X obj 408 80 sel 0;
#X obj 395 52 inlet continous;
#X obj 490 211 * 0.9;
#X obj 495 41 inlet quick;
#X obj 471 171 * 1000;
#X obj 507 76 t b b;
#X connect 1 0 4 0;
#X connect 1 0 5 0;
#X connect 2 0 4 1;
#X connect 2 0 5 1;
#X connect 3 0 9 0;
#X connect 4 0 6 0;
#X connect 5 0 7 0;
#X connect 6 0 0 0;
#X connect 7 0 0 0;
#X connect 8 0 6 1;
#X connect 9 0 11 0;
#X connect 10 0 18 0;
#X connect 11 0 12 0;
#X connect 12 0 7 1;
#X connect 12 0 8 0;
#X connect 13 0 11 1;
#X connect 14 0 13 0;
#X connect 14 1 16 0;
#X connect 15 0 14 0;
#X connect 16 0 11 1;
#X connect 17 0 19 0;
#X connect 18 0 13 0;
#X connect 19 0 9 0;
#X connect 19 1 13 0;
#X restore 161 174 pd play;
#X obj 188 41 inlet harmonics list;
#X obj 543 13 inlet detune;
#X obj 10 13 inlet~ frequency;
#X obj 116 12 inlet phase;
#X obj 145 213 outlet~;
#X obj 599 33 inlet bwscale;
#N canvas 639 328 666 371 generate 0;
#X obj 329 19 inlet bandwidth;
#X obj 228 177 table \$0.harmonics 1;
#X msg 234 131 \; \$1.harmonics resize \$2;
#X obj 234 72 f \$0;
#X obj 240 100 pack f f;
#X obj 275 76 t b f;
#X obj 86 38 inlet generate;
#N canvas 200 206 523 310 phase 0;
#X obj 177 223 outlet~;
#X obj 182 139 noise~;
#X obj 211 160 +~ 1;
#X obj 208 189 /~ 2;
#X connect 1 0 2 0;
#X connect 2 0 3 0;
#X connect 3 0 0 0;
#X restore 203 225 pd phase;
#N canvas 589 72 947 439 gen 0;
#X obj 127 26 inlet;
#X obj 24 27 inlet~;
#X obj 83 41 inlet~;
#N canvas 208 265 450 300 delout 1;
#X obj 161 205 outlet~;
#X obj 214 46 samplerate~;
#X obj 214 67 / 1000;
#X msg 212 98 1 \$1;
#X obj 210 118 /;
#X floatatom 210 141 5 0 0 0 - - -;
#X obj 237 22 bng 15 250 50 0 empty empty empty 17 7 0 10 -262144 -1
-1;
#X obj 292 25 loadbang;
#X obj 115 83 inlet~;
#X obj 116 253 outlet~;
#X obj 163 168 vd~ \$0.ph 1;
#X obj 301 85 r \$0.block;
#X obj 180 140 *;
#X obj 303 118 t f b;
#X floatatom 258 189 5 0 0 0 - - -;
#X connect 1 0 2 0;
#X connect 2 0 3 0;
#X connect 3 0 4 0;
#X connect 4 0 5 0;
#X connect 4 0 12 1;
#X connect 6 0 1 0;
#X connect 7 0 1 0;
#X connect 8 0 9 0;
#X connect 10 0 0 0;
#X connect 11 0 13 0;
#X connect 12 0 10 0;
#X connect 12 0 14 0;
#X connect 13 0 12 0;
#X connect 13 1 1 0;
#X restore 104 242 pd delout;
#N canvas 0 22 450 300 delin 1;
#X obj 176 100 inlet~;
#X obj 189 195 outlet~;
#X obj 194 155 delwrite~ \$0.ph 500;
#X connect 0 0 1 0;
#X connect 0 0 2 0;
#X restore 102 217 pd delin;
#X floatatom 431 136 5 0 0 0 - - -;
#X obj 28 119 cos~;
#X obj 24 149 *~;
#X obj 57 141 *~;
#X obj 61 111 sin~;
#X obj 203 19 t b b b;
#X obj 288 9 tgl 15 0 empty empty empty 17 7 0 10 -262144 -1 -1 1 1
;
#X obj 610 173 makefilename \$0.wt%d;
#X obj 287 31 table \$0.wt0 515;
#X obj 285 54 table \$0.wt1 515;
#X msg 608 199 set \$1;
#X obj 407 369 outlet table;
#X obj 125 336 tabwrite~ \$0.wt1;
#X obj 398 89 r \$0.secpblck;
#X msg 304 376 \; \$1 normalize;
#X obj 316 335 symbol;
#X obj 246 238 f;
#X obj 231 261 t3_delay;
#X obj 102 145 /~ 131072;
#X obj 100 112 ifft~;
#X obj 415 344 f;
#X obj 288 293 t b b;
#X obj 548 23 r \$0.block;
#X obj 548 48 + 3;
#X obj 553 76 pack f \$0;
#X msg 567 96 \; \$2.wt0 resize \$1 \; \$2.wt1 resize \$1 \;;
#X obj 360 294 del 1;
#X obj 283 205 * 3000;
#X connect 0 0 10 0;
#X connect 1 0 7 0;
#X connect 1 0 8 0;
#X connect 2 0 6 0;
#X connect 2 0 9 0;
#X connect 3 0 17 0;
#X connect 3 1 17 0;
#X connect 4 0 3 0;
#X connect 6 0 7 1;
#X connect 7 0 24 0;
#X connect 8 0 24 1;
#X connect 9 0 8 1;
#X connect 10 0 17 0;
#X connect 10 1 21 0;
#X connect 10 2 11 0;
#X connect 11 0 12 0;
#X connect 11 0 25 1;
#X connect 12 0 15 0;
#X connect 12 0 20 1;
#X connect 15 0 17 0;
#X connect 18 0 5 0;
#X connect 18 0 32 0;
#X connect 20 0 19 0;
#X connect 21 0 22 0;
#X connect 22 0 26 0;
#X connect 23 0 4 0;
#X connect 24 0 23 0;
#X connect 25 0 16 0;
#X connect 26 0 31 0;
#X connect 26 1 20 0;
#X connect 27 0 28 0;
#X connect 28 0 29 0;
#X connect 29 0 30 0;
#X connect 31 0 25 0;
#X connect 32 0 21 1;
#X restore 102 328 pd gen;
#N canvas 0 22 547 317 treatHarmonics 0;
#X obj 201 21 inlet;
#X obj 131 125 list length;
#X floatatom 137 167 5 0 0 0 - - -;
#X obj 227 196 list split 1;
#X obj 227 113 until;
#X obj 224 159 list append;
#X obj 253 80 t b l;
#X obj 356 163 bang;
#X obj 118 228 outlet;
#X obj 301 248 counter;
#X obj 168 46 t a a b;
#X obj 227 277 tabwrite \$0.harmonics;
#X obj 232 216 t f b;
#X msg 348 201 0;
#X obj 312 98 list split 1;
#X obj 384 246 outlet base frequency;
#X obj 123 193 - 1;
#X connect 0 0 10 0;
#X connect 1 0 2 0;
#X connect 1 0 16 0;
#X connect 3 0 12 0;
#X connect 3 1 5 1;
#X connect 3 2 7 0;
#X connect 4 0 5 0;
#X connect 5 0 3 0;
#X connect 6 0 4 0;
#X connect 6 1 14 0;
#X connect 7 0 4 1;
#X connect 9 0 11 1;
#X connect 10 0 6 0;
#X connect 10 1 1 0;
#X connect 10 2 9 2;
#X connect 12 0 11 0;
#X connect 12 1 9 0;
#X connect 13 0 12 0;
#X connect 14 0 15 0;
#X connect 14 1 5 1;
#X connect 16 0 8 0;
#X restore 201 45 pd treatHarmonics;
#X obj 165 18 inlet harmonics list;
#X obj 432 29 inlet detune;
#X obj 520 33 inlet bwscale;
#X obj 176 349 outlet;
#X obj 471 207 / 44100;
#X obj 464 79 loadbang;
#X obj 483 110 samplerate~;
#X obj 541 74 bng 15 250 50 0 empty empty empty 17 7 0 10 -262144 -1
-1;
#X obj 474 240 s \$0.secpblck;
#N canvas 150 100 1019 696 harmonicLoop 0;
#X obj 316 54 inlet bandwidth;
#X obj 398 119 f \$0;
#X obj 460 603 outlet;
#X msg 387 150 \; \$1.freqAmp const 0;
#X obj 408 83 bng 15 250 50 0 empty empty empty 17 7 0 10 -262144 -1
-1;
#N canvas 0 548 536 304 bw_Hz 0;
#X obj 177 50 inlet frequency;
#X obj 293 56 inlet bandwidth;
#X obj 270 108 / 1200;
#X msg 272 131 2 \$1;
#X obj 274 159 pow;
#X obj 274 185 - 1;
#X obj 54 49 inlet nh;
#X obj 149 180 *;
#X obj 155 212 *;
#X obj 150 268 outlet;
#X obj 51 126 pow 1;
#X text 93 128 <-bwscale;
#X obj 399 54 inlet bwscale;
#X obj 33 93 zynpadsynth/relF \$0.detune;
#X connect 0 0 7 1;
#X connect 1 0 2 0;
#X connect 2 0 3 0;
#X connect 3 0 4 0;
#X connect 4 0 5 0;
#X connect 5 0 8 1;
#X connect 6 0 13 0;
#X connect 7 0 8 0;
#X connect 8 0 9 0;
#X connect 10 0 7 0;
#X connect 12 0 10 1;
#X connect 13 0 10 0;
#X restore 226 124 pd bw_Hz;
#N canvas 892 100 450 300 bwi 0;
#X obj 174 153 samplerate~;
#X obj 200 107 loadbang;
#X obj 174 177 * 2;
#X floatatom 193 207 5 0 0 0 - - -;
#X obj 278 128 bng 15 250 50 0 empty empty empty 17 7 0 10 -262144
-1 -1;
#X obj 129 63 inlet bw_Hz;
#X obj 138 195 /;
#X obj 143 226 outlet;
#X connect 0 0 2 0;
#X connect 1 0 0 0;
#X connect 2 0 3 0;
#X connect 2 0 6 1;
#X connect 4 0 0 0;
#X connect 5 0 6 0;
#X connect 6 0 7 0;
#X restore 182 199 pd bwi;
#N canvas 590 64 450 300 fi 0;
#X obj 174 52 inlet frequency;
#X obj 181 187 samplerate~;
#X obj 188 143 loadbang;
#X obj 265 168 bng 15 250 50 0 empty empty empty 17 7 0 10 -262144
-1 -1;
#X obj 51 51 inlet nh;
#X obj 103 103 *;
#X obj 114 166 /;
#X obj 113 230 outlet;
#X obj 60 77 zynpadsynth/relF \$0.detune;
#X connect 0 0 5 1;
#X connect 1 0 6 1;
#X connect 2 0 1 0;
#X connect 3 0 1 0;
#X connect 4 0 8 0;
#X connect 5 0 6 0;
#X connect 6 0 7 0;
#X connect 8 0 5 0;
#X restore 188 263 pd fi;
#X obj 525 577 tabplay~ \$0.freqAmp;
#X obj 537 603 outlet~;
#X obj 798 537 table \$0.freqAmp 256;
#X floatatom 800 164 5 0 0 0 - - -;
#X floatatom 761 215 5 0 0 0 - - -;
#X msg 796 188 1 \$1;
#X obj 701 152 /;
#X obj 467 57 inlet number harmonics;
#X obj 152 41 inlet start;
#X obj 612 54 inlet detune;
#X obj 619 87 s \$0.detune;
#X obj 702 53 inlet bwcale;
#X obj 802 124 r \$0.secpblck;
#X obj 110 318 until;
#X obj 113 349 counter;
#X obj 115 268 t b b;
#X obj 110 419 -;
#N canvas 0 22 450 300 profile 0;
#X obj 194 61 inlet bwi;
#X obj 125 57 inlet fi;
#X obj 147 110 /;
#X obj 147 162 *;
#X obj 134 194 * -1;
#X obj 138 228 exp;
#X obj 145 254 /;
#X obj 145 280 outlet;
#X obj 127 136 t f f;
#X connect 0 0 2 1;
#X connect 0 0 6 1;
#X connect 1 0 2 0;
#X connect 2 0 8 0;
#X connect 3 0 4 0;
#X connect 4 0 5 0;
#X connect 5 0 6 0;
#X connect 6 0 7 0;
#X connect 8 0 3 0;
#X connect 8 1 3 1;
#X restore 204 499 pd profile;
#X obj 302 438 +;
#X obj 326 388 tabread \$0.freqAmp;
#X obj 294 496 tabwrite \$0.freqAmp;
#X obj 458 330 counter;
#X obj 454 302 until;
#X obj 468 382 + 1;
#X obj 451 205 t b b;
#X obj 450 229 f;
#X obj 465 407 t b f;
#X obj 464 270 + 1;
#X obj 473 356 sel;
#X obj 454 249 t f f;
#X obj 357 251 - 1;
#X obj 180 69 t b b;
#X floatatom 234 210 9 0 0 0 - - -;
#X floatatom 246 267 9 0 0 0 - - -;
#X floatatom 186 523 11 0 0 0 - - -;
#X floatatom 303 544 5 0 0 0 - - -;
#X obj 521 429 t b;
#X obj 118 370 t f f;
#X obj 279 363 *;
#X obj 568 522 tabreceive~ \$0.freqAmp;
#X obj 539 499 bng 15 250 50 0 empty empty empty 17 7 0 10 -262144
-1 -1;
#X obj 305 298 tabread \$0.harmonics.t 1;
#X obj 91 140 r \$0.block;
#X obj 79 175 / 2;
#X obj 105 291 f;
#X obj 112 395 /;
#X obj 824 323 r \$0.block;
#X obj 812 358 / 2;
#X msg 803 460 \; \$2.freqAmp resize \$1;
#X obj 833 410 pack f \$0;
#X connect 0 0 5 2;
#X connect 1 0 3 0;
#X connect 4 0 1 0;
#X connect 5 0 6 0;
#X connect 6 0 25 1;
#X connect 6 0 40 0;
#X connect 7 0 24 1;
#X connect 7 0 41 0;
#X connect 8 0 9 0;
#X connect 11 0 13 0;
#X connect 13 0 14 0;
#X connect 14 0 12 0;
#X connect 14 0 5 1;
#X connect 14 0 7 1;
#X connect 15 0 33 1;
#X connect 16 0 39 0;
#X connect 17 0 18 0;
#X connect 19 0 5 3;
#X connect 20 0 11 0;
#X connect 21 0 22 0;
#X connect 22 0 45 0;
#X connect 23 0 52 0;
#X connect 23 1 22 2;
#X connect 24 0 25 0;
#X connect 25 0 42 0;
#X connect 25 0 46 0;
#X connect 26 0 28 0;
#X connect 27 0 26 1;
#X connect 29 0 36 0;
#X connect 30 0 29 0;
#X connect 31 0 34 0;
#X connect 32 0 33 0;
#X connect 32 1 29 2;
#X connect 33 0 37 0;
#X connect 34 0 23 0;
#X connect 34 1 5 0;
#X connect 34 1 7 0;
#X connect 34 1 38 0;
#X connect 35 0 30 0;
#X connect 36 0 8 0;
#X connect 36 0 44 0;
#X connect 36 1 31 0;
#X connect 37 0 35 0;
#X connect 37 1 36 1;
#X connect 38 0 49 0;
#X connect 39 0 32 0;
#X connect 39 1 1 0;
#X connect 44 0 2 0;
#X connect 45 0 53 0;
#X connect 45 1 27 0;
#X connect 45 1 28 1;
#X connect 46 0 26 0;
#X connect 46 0 43 0;
#X connect 48 0 8 0;
#X connect 48 0 2 0;
#X connect 49 0 46 1;
#X connect 50 0 51 0;
#X connect 50 0 53 1;
#X connect 51 0 52 1;
#X connect 52 0 21 0;
#X connect 53 0 24 0;
#X connect 54 0 55 0;
#X connect 55 0 57 0;
#X connect 57 0 56 0;
#X restore 27 222 pd harmonicLoop;
#X obj 7 15 inlet~ freq;
#N canvas 218 196 964 397 fixHarmonics 0;
#X obj 126 36 inlet~ frequency;
#X obj 238 46 inlet frequency;
#X obj 218 130 /;
#X obj 30 36 inlet generate;
#X obj 153 95 snapshot~;
#X obj 351 50 inlet size;
#X obj 336 173 int;
#X obj 322 99 f;
#X obj 322 77 t b f;
#X obj 331 130 /;
#X obj 284 311 table \$0.harmonics.t 2;
#X msg 336 265 \; \$1.harmonics.t resize \$2;
#X obj 344 239 pack f f;
#X obj 344 195 t b f;
#X obj 344 217 f \$0;
#X obj 72 91 t b b;
#X floatatom 367 82 5 0 0 0 - - -;
#X floatatom 242 169 5 0 0 0 - - -;
#X floatatom 396 210 5 0 0 0 - - -;
#X obj 215 345 outlet;
#X obj 331 152 + 0;
#X obj 562 302 tabwrite~ \$0.harmonics.t;
#X obj 560 261 tabread4~ \$0.harmonics;
#X obj 610 54 samplerate~;
#X obj 585 77 /;
#X obj 585 121 /;
#X floatatom 616 130 5 0 0 0 - - -;
#X obj 624 32 bng 15 250 50 0 empty empty empty 17 7 0 10 -262144 -1
-1;
#X obj 552 156 *;
#X obj 556 195 phasor~;
#X msg 616 183 0;
#X obj 657 32 loadbang;
#X obj 586 233 *~;
#X obj 677 239 tabplay~ \$0.harmonics;
#X msg 636 336 \; 1004.harmonics normalize;
#X msg 585 99 1 \$1;
#X obj 418 82 - 1;
#X floatatom 632 95 9 0 0 0 - - -;
#X msg 677 217 0;
#X obj 450 173 f;
#X obj 461 201 sel 1;
#X obj 491 228 b;
#X obj 726 302 tabwrite~ \$0.harmonics.t;
#X connect 0 0 4 0;
#X connect 1 0 2 1;
#X connect 2 0 8 0;
#X connect 2 0 17 0;
#X connect 2 0 28 0;
#X connect 2 0 39 1;
#X connect 3 0 15 0;
#X connect 4 0 2 0;
#X connect 5 0 7 1;
#X connect 5 0 16 0;
#X connect 5 0 36 0;
#X connect 6 0 13 0;
#X connect 7 0 9 0;
#X connect 8 0 7 0;
#X connect 8 1 9 1;
#X connect 9 0 20 0;
#X connect 12 0 11 0;
#X connect 13 0 14 0;
#X connect 13 1 12 1;
#X connect 13 1 18 0;
#X connect 13 1 19 0;
#X connect 14 0 12 0;
#X connect 15 0 39 0;
#X connect 15 1 4 0;
#X connect 20 0 6 0;
#X connect 22 0 21 0;
#X connect 23 0 24 1;
#X connect 24 0 35 0;
#X connect 24 0 37 0;
#X connect 25 0 26 0;
#X connect 25 0 28 1;
#X connect 27 0 23 0;
#X connect 28 0 29 0;
#X connect 29 0 32 0;
#X connect 30 0 29 1;
#X connect 31 0 23 0;
#X connect 32 0 22 0;
#X connect 33 0 42 0;
#X connect 35 0 25 0;
#X connect 36 0 24 0;
#X connect 36 0 32 1;
#X connect 38 0 33 0;
#X connect 39 0 40 0;
#X connect 40 0 38 0;
#X connect 40 0 42 0;
#X connect 40 1 41 0;
#X connect 41 0 30 0;
#X connect 41 0 21 0;
#X restore 335 243 pd fixHarmonics;
#X obj 360 267 t b f;
#X obj 60 76 b;
#X obj 579 97 f \$1;
#X obj 587 210 block~;
#X msg 590 186 set \$1;
#X obj 580 123 sel 0;
#X floatatom 595 162 5 0 0 0 - - -;
#X msg 565 145 64;
#X obj 578 247 s \$0.block;
#X obj 452 140 r \$0.block;
#X obj 480 162 t f b;
#X obj 369 337 zynpadsynth/waitblock \$0.secpblck;
#X floatatom 495 267 5 0 0 0 - - -;
#X connect 0 0 19 1;
#X connect 3 0 4 0;
#X connect 4 0 2 0;
#X connect 5 0 3 0;
#X connect 5 1 4 1;
#X connect 5 1 21 3;
#X connect 6 0 23 0;
#X connect 7 0 8 1;
#X connect 8 0 13 0;
#X connect 9 0 5 0;
#X connect 9 1 21 2;
#X connect 10 0 9 0;
#X connect 11 0 19 3;
#X connect 12 0 19 4;
#X connect 14 0 18 0;
#X connect 15 0 24 0;
#X connect 16 0 14 1;
#X connect 17 0 24 0;
#X connect 19 0 8 2;
#X connect 19 1 8 0;
#X connect 20 0 21 1;
#X connect 21 0 22 0;
#X connect 22 0 33 0;
#X connect 22 1 19 2;
#X connect 23 0 21 0;
#X connect 24 0 27 0;
#X connect 26 0 25 0;
#X connect 27 0 29 0;
#X connect 27 1 28 0;
#X connect 28 0 26 0;
#X connect 28 0 30 0;
#X connect 29 0 28 0;
#X connect 31 0 32 0;
#X connect 32 0 14 0;
#X connect 32 1 16 0;
#X connect 33 0 19 0;
#X restore 238 140 pd generate;
#X obj 323 34 inlet continuous;
#N canvas 0 22 549 324 continous 0;
#X obj 173 54 inlet;
#X obj 162 112 sel 0;
#X obj 293 145 metro;
#X msg 139 149 0;
#X obj 215 124 t b f;
#X msg 210 153 1;
#X obj 170 239 outlet;
#X obj 238 243 f;
#X obj 229 278 outlet;
#X obj 197 213 t b b;
#X obj 86 210 sel;
#X obj 85 182 t f f;
#X obj 181 87 f;
#X obj 267 68 inlet;
#X obj 295 187 spigot 1;
#X obj 240 90 t b b b;
#X msg 370 112 0;
#X msg 334 117 1;
#X obj 275 125 f;
#X connect 0 0 12 0;
#X connect 1 0 3 0;
#X connect 1 1 4 0;
#X connect 2 0 14 0;
#X connect 3 0 8 0;
#X connect 3 0 11 0;
#X connect 4 0 5 0;
#X connect 4 1 7 1;
#X connect 5 0 11 0;
#X connect 7 0 8 0;
#X connect 7 0 2 1;
#X connect 9 0 6 0;
#X connect 9 1 7 0;
#X connect 10 1 18 0;
#X connect 11 0 10 1;
#X connect 11 1 10 0;
#X connect 12 0 1 0;
#X connect 13 0 15 0;
#X connect 14 0 9 0;
#X connect 15 0 17 0;
#X connect 15 1 18 0;
#X connect 15 2 16 0;
#X connect 16 0 14 1;
#X connect 17 0 14 1;
#X connect 18 0 2 0;
#X restore 166 68 pd continous;
#N canvas 318 117 450 300 hold 0;
#X obj 124 32 inlet;
#X obj 113 216 outlet;
#X obj 212 267 outlet;
#X obj 228 102 counter;
#X obj 211 158 sel 0;
#X obj 261 166 f;
#X obj 214 131 t f f;
#X obj 309 80 inlet;
#X obj 268 194 sel 0;
#X obj 302 119 t b b;
#X obj 182 64 b;
#X obj 259 62 loadbang;
#X floatatom 324 157 5 0 0 0 - - -;
#X obj 200 190 f;
#X obj 215 214 sel 1;
#X obj 136 133 t b b b;
#X obj 118 71 t b f;
#X obj -35 176 zynpadsynth/waitblock \$0.secpblck;
#X connect 0 0 16 0;
#X connect 3 0 6 0;
#X connect 4 0 15 0;
#X connect 5 0 8 0;
#X connect 6 0 4 0;
#X connect 6 1 5 1;
#X connect 6 1 12 0;
#X connect 7 0 9 0;
#X connect 8 1 10 0;
#X connect 9 0 5 0;
#X connect 9 1 3 2;
#X connect 10 0 3 0;
#X connect 11 0 3 2;
#X connect 13 0 14 0;
#X connect 14 0 2 0;
#X connect 15 0 17 0;
#X connect 15 1 13 0;
#X connect 16 0 10 0;
#X connect 16 1 13 1;
#X connect 17 0 1 0;
#X restore 259 70 pd hold generate;
#X obj 253 180 t b f;
#X msg 299 6 1;
#X msg 268 9 0;
#X text 7 -18 1st creation argument is blocksize (default 64);
#X connect 0 0 9 3;
#X connect 1 0 14 0;
#X connect 2 0 7 0;
#X connect 3 0 9 2;
#X connect 4 0 9 4;
#X connect 5 0 2 0;
#X connect 5 0 9 0;
#X connect 6 0 2 1;
#X connect 8 0 9 5;
#X connect 9 0 13 0;
#X connect 10 0 11 0;
#X connect 11 0 15 0;
#X connect 11 1 2 3;
#X connect 12 0 9 1;
#X connect 12 1 2 4;
#X connect 12 1 11 1;
#X connect 13 0 12 1;
#X connect 13 1 2 2;
#X connect 14 0 12 0;
#X connect 15 0 12 0;
