#N canvas 345 203 1014 353 10;
#X obj 101 117 cnv 15 173 141 empty empty empty 20 25 0 14 -261234
-66577 0;
#X obj -149 19 inlet~ frequency;
#X obj 1 284 outlet~;
#X obj -60 46 inlet phase;
#X obj 101 118 bng 15 250 50 0 empty empty generate 17 7 0 10 -258113
-1 -1;
#X obj 104 148 hsl 128 15 0 30000 0 0 empty empty regenerate_loop_in_ms
-2 -8 0 10 -258113 -1 -1 700 1;
#X obj 104 181 hsl 128 15 1 12000 0 0 empty empty bandwidth -2 -8 0
10 -203904 -1 -1 52 1;
#X floatatom 236 147 6 0 0 0 - - -;
#X floatatom 236 180 5 0 0 0 - - -;
#X obj 104 70 inlet list of amplitudes in rms;
#X obj 104 213 hsl 128 15 0 100 0 0 empty empty detune_factor -2 -8
0 10 -204786 -1 -1 0 1;
#X floatatom 236 212 5 0 0 0 - - -;
#X obj 55 192 / 100;
#X obj 104 243 hsl 128 15 0.3 3 1 0 empty empty bandwdidth_scale -2
-8 0 10 -232576 -1 -1 1741 1;
#X floatatom 236 242 5 0 0 0 - - -;
#X obj 318 131 tabwrite \$0.mem;
#X obj 326 112 t f b;
#X msg 374 114 0;
#X obj 299 177 tabwrite \$0.mem;
#X obj 307 158 t f b;
#X msg 355 160 1;
#X obj 300 225 tabwrite \$0.mem;
#X obj 308 206 t f b;
#X obj 303 270 tabwrite \$0.mem;
#X obj 311 251 t f b;
#X msg 356 208 2;
#X msg 359 253 3;
#X obj 129 27 tabread \$0.mem;
#X msg 132 6 0;
#X obj 228 34 tabread \$0.mem;
#X msg 231 13 1;
#X obj 325 33 tabread \$0.mem;
#X msg 328 12 2;
#X obj 419 35 tabread \$0.mem;
#X msg 422 14 3;
#X obj 171 118 bng 15 250 50 0 empty empty save 17 7 0 10 -4034 -1
-1;
#X msg 479 69 symbol zynpadsynth/presets/;
#X msg 448 177 \; \$1.mem write \$2;
#X obj 447 154 pack f s;
#X obj 529 47 loadbang;
#X obj 448 131 f \$0;
#X obj 453 107 t b s;
#X obj 453 88 savepanel;
#X obj 575 164 pack f s;
#X obj 576 141 f \$0;
#X obj 580 100 openpanel;
#X obj 219 118 bng 15 250 50 0 empty empty open 17 7 0 10 -204800 -1
-1;
#X obj 561 121 t b b s;
#X msg 576 187 \; \$1.mem read \$2;
#N canvas 224 596 490 306 append 0;
#X obj 198 10 inlet list of amplitudes in rms;
#X obj 200 72 list length;
#X msg 200 210 \; \$1.mem resize \$2;
#X obj 194 158 f \$0;
#X obj 215 138 t b f;
#X obj 210 181 pack f f;
#X obj 281 180 list split 1;
#X obj 281 97 until;
#X obj 281 135 list append;
#X obj 307 64 t b l;
#X obj 411 180 bang;
#X obj 307 281 tabwrite \$0.mem;
#X obj 373 230 counter;
#X obj 216 29 t l l b;
#X msg 239 270;
#X obj 207 115 + 5;
#X obj 393 252 + 4;
#X floatatom 113 84 5 0 0 0 - - -;
#X floatatom 416 276 5 0 0 0 - - -;
#X obj 143 107 t f f;
#X obj 326 204 t f b;
#X connect 0 0 13 0;
#X connect 1 0 17 0;
#X connect 1 0 19 0;
#X connect 3 0 5 0;
#X connect 4 0 3 0;
#X connect 4 1 5 1;
#X connect 5 0 2 0;
#X connect 6 0 20 0;
#X connect 6 1 8 1;
#X connect 6 2 10 0;
#X connect 7 0 8 0;
#X connect 8 0 6 0;
#X connect 9 0 7 0;
#X connect 9 1 8 1;
#X connect 10 0 7 1;
#X connect 12 0 16 0;
#X connect 13 0 9 0;
#X connect 13 1 1 0;
#X connect 13 2 12 2;
#X connect 15 0 4 0;
#X connect 16 0 11 1;
#X connect 16 0 18 0;
#X connect 19 0 20 0;
#X connect 19 1 15 0;
#X connect 20 0 11 0;
#X connect 20 1 12 0;
#X restore 13 132 pd append mem;
#X obj 623 19 symbol \$1;
#X obj 619 41 makefilename zynpadsynth/presets/%s;
#X obj 527 -10 loadbang;
#X obj 659 76 sel zynpadsynth/presets/;
#X msg 675 113 1;
#N canvas 231 448 450 300 mem 0;
#X obj 161 19 inlet;
#X obj 188 139 tabread \$0.mem;
#X obj 214 82 tabread \$0.mem;
#X obj 204 118 + 5;
#X msg 238 60 4;
#X obj 132 90 t b b b;
#X obj 320 199 t l;
#X obj 222 195 list prepend;
#X obj 212 229 list;
#X obj 234 257 outlet;
#X obj 78 84 until;
#X obj 86 48 f;
#X obj 118 170 sel;
#X obj 72 136 counter;
#X obj 61 28 + 1;
#X obj 173 45 del 2;
#X obj 271 232 print zynPadsynth base frequency and amplitudes;
#X connect 0 0 15 0;
#X connect 1 0 7 0;
#X connect 2 0 11 1;
#X connect 2 0 12 1;
#X connect 3 0 1 0;
#X connect 4 0 2 0;
#X connect 5 0 11 0;
#X connect 5 1 13 2;
#X connect 5 2 4 0;
#X connect 5 2 7 1;
#X connect 6 0 7 1;
#X connect 7 0 6 0;
#X connect 7 0 8 1;
#X connect 8 0 9 0;
#X connect 8 0 16 0;
#X connect 10 0 13 0;
#X connect 11 0 14 0;
#X connect 12 0 8 0;
#X connect 12 1 3 0;
#X connect 13 0 12 0;
#X connect 14 0 10 0;
#X connect 15 0 5 0;
#X restore 565 232 pd mem list;
#X obj 714 163 tabread \$0.mem;
#X obj 440 261 table \$0.mem 5;
#X msg 729 136 5;
#X obj 734 187 + 5;
#X msg 726 276 \; \$1.mem resize \$2;
#X obj 732 235 f \$0;
#X obj 729 255 pack f f;
#X obj 732 212 t b b b f;
#X obj 4 68 inlet generate;
#X obj -28 246 zynPadsynth \$2;
#X connect 1 0 65 0;
#X connect 3 0 65 1;
#X connect 4 0 65 3;
#X connect 5 0 7 0;
#X connect 6 0 8 0;
#X connect 7 0 16 0;
#X connect 7 0 65 4;
#X connect 8 0 19 0;
#X connect 8 0 65 5;
#X connect 9 0 49 0;
#X connect 9 0 65 2;
#X connect 10 0 11 0;
#X connect 11 0 12 0;
#X connect 11 0 22 0;
#X connect 12 0 65 6;
#X connect 13 0 14 0;
#X connect 14 0 24 0;
#X connect 14 0 65 7;
#X connect 16 0 15 0;
#X connect 16 1 17 0;
#X connect 17 0 15 1;
#X connect 19 0 18 0;
#X connect 19 1 20 0;
#X connect 20 0 18 1;
#X connect 22 0 21 0;
#X connect 22 1 25 0;
#X connect 24 0 23 0;
#X connect 24 1 26 0;
#X connect 25 0 21 1;
#X connect 26 0 23 1;
#X connect 27 0 5 0;
#X connect 28 0 27 0;
#X connect 29 0 6 0;
#X connect 30 0 29 0;
#X connect 31 0 10 0;
#X connect 32 0 31 0;
#X connect 33 0 13 0;
#X connect 34 0 33 0;
#X connect 35 0 42 0;
#X connect 36 0 45 0;
#X connect 38 0 37 0;
#X connect 39 0 36 0;
#X connect 40 0 38 0;
#X connect 41 0 40 0;
#X connect 41 1 38 1;
#X connect 42 0 41 0;
#X connect 43 0 48 0;
#X connect 44 0 43 0;
#X connect 45 0 47 0;
#X connect 46 0 45 0;
#X connect 47 0 28 0;
#X connect 47 0 30 0;
#X connect 47 0 32 0;
#X connect 47 0 34 0;
#X connect 47 0 58 0;
#X connect 47 1 44 0;
#X connect 47 2 43 1;
#X connect 50 0 51 0;
#X connect 51 0 53 0;
#X connect 52 0 50 0;
#X connect 53 0 54 0;
#X connect 53 1 47 0;
#X connect 54 0 13 0;
#X connect 55 0 65 2;
#X connect 56 0 59 0;
#X connect 58 0 56 0;
#X connect 59 0 63 0;
#X connect 61 0 62 0;
#X connect 62 0 60 0;
#X connect 63 0 55 0;
#X connect 63 1 43 0;
#X connect 63 2 61 0;
#X connect 63 3 62 1;
#X connect 64 0 4 0;
#X connect 65 0 2 0;
#X coords 0 -1 1 1 175 159 1 100 100;
