#N canvas 617 249 450 300 10;
#X obj 114 30 inlet;
#X obj 101 60 t f f;
#X obj 121 159 *;
#X obj 116 194 outlet;
#X obj 188 71 r \$1;
#X obj 85 96 * 0;
#X obj 85 127 + 1;
#X obj 63 71 - 0;
#X connect 0 0 1 0;
#X connect 1 0 7 0;
#X connect 1 1 2 1;
#X connect 2 0 3 0;
#X connect 4 0 5 1;
#X connect 5 0 6 0;
#X connect 6 0 2 0;
#X connect 7 0 5 0;
