#N canvas 462 287 558 324 10;
#X obj 156 47 inlet;
#X obj 190 211 list;
#X obj 164 76 t b a;
#X obj 161 145 t3_delay;
#X obj 165 176 b;
#X obj 158 116 f;
#X obj 211 265 outlet;
#X obj 198 236 list trim;
#X obj 290 178 * 1000;
#X floatatom 299 210 5 0 0 0 - - -;
#X obj 276 41 r \$1;
#X connect 0 0 2 0;
#X connect 1 0 7 0;
#X connect 2 0 5 0;
#X connect 2 1 1 1;
#X connect 3 0 4 0;
#X connect 4 0 1 0;
#X connect 5 0 3 0;
#X connect 7 0 6 0;
#X connect 8 0 5 1;
#X connect 8 0 9 0;
#X connect 10 0 8 0;
